<?xml version="1.0" encoding="UTF-8" standalone="no"?>
<!-- Created with Inkscape (http://www.inkscape.org/) -->

<svg
   xmlns:dc="http://purl.org/dc/elements/1.1/"
   xmlns:cc="http://creativecommons.org/ns#"
   xmlns:rdf="http://www.w3.org/1999/02/22-rdf-syntax-ns#"
   xmlns:svg="http://www.w3.org/2000/svg"
   xmlns="http://www.w3.org/2000/svg"
   xmlns:xlink="http://www.w3.org/1999/xlink"
   xmlns:sodipodi="http://sodipodi.sourceforge.net/DTD/sodipodi-0.dtd"
   xmlns:inkscape="http://www.inkscape.org/namespaces/inkscape"
   width="86"
   height="86"
   id="svg2"
   version="1.1"
   inkscape:version="0.91 r13725"
   sodipodi:docname="harbour-owncloud.svg"
   inkscape:export-filename="/home/hauke/Programme/harbour-owncloud/app/icons/128x128/harbour-owncloud.png"
   inkscape:export-xdpi="134.89462"
   inkscape:export-ydpi="134.89462">
  <defs
     id="defs4">
    <linearGradient
       id="linearGradient3789-6">
      <stop
         style="stop-color:#1b2d43;stop-opacity:0.93333334"
         offset="0"
         id="stop3791-0" />
      <stop
         style="stop-color:#1b2d43;stop-opacity:1"
         offset="1"
         id="stop3793-4" />
    </linearGradient>
    <linearGradient
       gradientTransform="translate(0,4)"
       y2="0"
       x2="86"
       y1="86"
       x1="0"
       gradientUnits="userSpaceOnUse"
       id="linearGradient3030"
       xlink:href="#linearGradient3789-6"
       inkscape:collect="always" />
    <linearGradient
       y2="339.22189"
       x2="288.49411"
       y1="55.888199"
       x1="288.49411"
       gradientUnits="userSpaceOnUse"
       id="linearGradient3353"
       xlink:href="#SVGID_1_"
       inkscape:collect="always" />
    <linearGradient
       y2="339.22159"
       x2="251.2114"
       y1="55.888199"
       x1="251.2114"
       gradientUnits="userSpaceOnUse"
       id="linearGradient3355"
       xlink:href="#SVGID_2_"
       inkscape:collect="always" />
    <linearGradient
       y2="339.22171"
       x2="293.22461"
       y1="55.888199"
       x1="293.22461"
       gradientUnits="userSpaceOnUse"
       id="linearGradient3357"
       xlink:href="#SVGID_3_"
       inkscape:collect="always" />
    <linearGradient
       y2="339.22159"
       x2="375.33401"
       y1="55.888199"
       x1="375.33401"
       gradientUnits="userSpaceOnUse"
       id="linearGradient3359"
       xlink:href="#SVGID_4_"
       inkscape:collect="always" />
    <linearGradient
       y2="339.22159"
       x2="334.49411"
       y1="55.888199"
       x1="334.49411"
       gradientUnits="userSpaceOnUse"
       id="linearGradient3361"
       xlink:href="#SVGID_5_"
       inkscape:collect="always" />
    <linearGradient
       y2="339.2236"
       x2="458.42679"
       y1="55.8867"
       x1="458.42679"
       gradientUnits="userSpaceOnUse"
       id="linearGradient3363"
       xlink:href="#SVGID_6_"
       inkscape:collect="always" />
    <linearGradient
       y2="339.22131"
       x2="413.16309"
       y1="55.888199"
       x1="413.16309"
       gradientUnits="userSpaceOnUse"
       id="linearGradient3365"
       xlink:href="#SVGID_7_"
       inkscape:collect="always" />
    <linearGradient
       y2="339.2236"
       x2="290.76169"
       y1="55.8867"
       x1="290.76169"
       gradientUnits="userSpaceOnUse"
       id="linearGradient3367"
       xlink:href="#SVGID_8_"
       inkscape:collect="always" />
    <linearGradient
       y2="339.22119"
       x2="346.77341"
       y1="55.888199"
       x1="346.77341"
       gradientUnits="userSpaceOnUse"
       id="linearGradient3369"
       xlink:href="#SVGID_9_"
       inkscape:collect="always" />
    <linearGradient
       id="SVGID_1_"
       gradientUnits="userSpaceOnUse"
       x1="288.49411"
       y1="55.888199"
       x2="288.49411"
       y2="339.22189">
      <stop
         offset="0"
         style="stop-color:#BED5E1"
         id="stop261" />
      <stop
         offset="1"
         style="stop-color:#567B8F"
         id="stop263" />
    </linearGradient>
    <linearGradient
       id="SVGID_2_"
       gradientUnits="userSpaceOnUse"
       x1="251.2114"
       y1="55.888199"
       x2="251.2114"
       y2="339.22159">
      <stop
         offset="0"
         style="stop-color:#BED5E1"
         id="stop268" />
      <stop
         offset="1"
         style="stop-color:#567B8F"
         id="stop270" />
    </linearGradient>
    <linearGradient
       id="SVGID_3_"
       gradientUnits="userSpaceOnUse"
       x1="293.22461"
       y1="55.888199"
       x2="293.22461"
       y2="339.22171">
      <stop
         offset="0"
         style="stop-color:#BED5E1"
         id="stop275" />
      <stop
         offset="1"
         style="stop-color:#567B8F"
         id="stop277" />
    </linearGradient>
    <linearGradient
       id="SVGID_4_"
       gradientUnits="userSpaceOnUse"
       x1="375.33401"
       y1="55.888199"
       x2="375.33401"
       y2="339.22159">
      <stop
         offset="0"
         style="stop-color:#BED5E1"
         id="stop282" />
      <stop
         offset="1"
         style="stop-color:#567B8F"
         id="stop284" />
    </linearGradient>
    <linearGradient
       id="SVGID_5_"
       gradientUnits="userSpaceOnUse"
       x1="334.49411"
       y1="55.888199"
       x2="334.49411"
       y2="339.22159">
      <stop
         offset="0"
         style="stop-color:#BED5E1"
         id="stop289" />
      <stop
         offset="1"
         style="stop-color:#567B8F"
         id="stop291" />
    </linearGradient>
    <linearGradient
       id="SVGID_6_"
       gradientUnits="userSpaceOnUse"
       x1="458.42679"
       y1="55.8867"
       x2="458.42679"
       y2="339.2236">
      <stop
         offset="0"
         style="stop-color:#BED5E1"
         id="stop296" />
      <stop
         offset="1"
         style="stop-color:#567B8F"
         id="stop298" />
    </linearGradient>
    <linearGradient
       id="SVGID_7_"
       gradientUnits="userSpaceOnUse"
       x1="413.16309"
       y1="55.888199"
       x2="413.16309"
       y2="339.22131">
      <stop
         offset="0"
         style="stop-color:#BED5E1"
         id="stop303" />
      <stop
         offset="1"
         style="stop-color:#567B8F"
         id="stop305" />
    </linearGradient>
    <linearGradient
       id="SVGID_8_"
       gradientUnits="userSpaceOnUse"
       x1="290.76169"
       y1="55.8867"
       x2="290.76169"
       y2="339.2236">
      <stop
         offset="0"
         style="stop-color:#BED5E1"
         id="stop310" />
      <stop
         offset="1"
         style="stop-color:#567B8F"
         id="stop312" />
    </linearGradient>
    <linearGradient
       id="SVGID_9_"
       gradientUnits="userSpaceOnUse"
       x1="346.77341"
       y1="55.888199"
       x2="346.77341"
       y2="339.22119">
      <stop
         offset="0"
         style="stop-color:#BED5E1"
         id="stop317" />
      <stop
         offset="1"
         style="stop-color:#567B8F"
         id="stop319" />
    </linearGradient>
  </defs>
  <sodipodi:namedview
     id="base"
     pagecolor="#ffffff"
     bordercolor="#666666"
     borderopacity="1.0"
     inkscape:pageopacity="0.0"
     inkscape:pageshadow="2"
     inkscape:zoom="7.9999999"
     inkscape:cx="14.422046"
     inkscape:cy="45.950389"
     inkscape:document-units="px"
     inkscape:current-layer="layer2"
     showgrid="true"
     inkscape:window-width="1920"
     inkscape:window-height="1016"
     inkscape:window-x="0"
     inkscape:window-y="27"
     inkscape:window-maximized="1"
     inkscape:snap-bbox="true"
     inkscape:snap-global="true">
    <inkscape:grid
       type="xygrid"
       id="grid2985"
       empspacing="5"
       visible="true"
       enabled="true"
       snapvisiblegridlinesonly="true" />
    <sodipodi:guide
       position="0,0"
       orientation="0,86"
       id="guide4694" />
    <sodipodi:guide
       position="86,0"
       orientation="-86,0"
       id="guide4696" />
    <sodipodi:guide
       position="86,86"
       orientation="0,-86"
       id="guide4698" />
    <sodipodi:guide
       position="0,86"
       orientation="86,0"
       id="guide4700" />
  </sodipodi:namedview>
  <metadata
     id="metadata7">
    <rdf:RDF>
      <cc:Work
         rdf:about="">
        <dc:format>image/svg+xml</dc:format>
        <dc:type
           rdf:resource="http://purl.org/dc/dcmitype/StillImage" />
        <dc:title />
      </cc:Work>
    </rdf:RDF>
  </metadata>
  <g
     inkscape:groupmode="layer"
     id="layer2"
     inkscape:label="Ebene"
     style="display:inline"
     transform="translate(0,-4)">
    <path
       inkscape:connector-curvature="0"
       style="fill:url(#linearGradient3030);fill-opacity:1.0"
       id="path11"
       d="M 84.277,4.3 H 43 C 19.417,4.3 0.3,23.418 0.3,47 v 41.277 c 0,0.786 0.637,1.423 1.423,1.423 H 43 C 66.583,89.7 85.7,70.582 85.7,47 V 5.723 C 85.7,4.937 85.063,4.3 84.277,4.3 z" />
    <path
       inkscape:connector-curvature="0"
       id="circle238"
       d="m 39.494842,28.911118 c -4.770587,0 -8.624783,3.854191 -8.624783,8.624783 0,1.966452 0.6548,3.776322 1.758781,5.225603 2.394927,-2.771963 5.929624,-4.532238 9.876218,-4.532238 1.930853,0 3.761825,0.429964 5.411633,1.183792 0.133578,-0.604079 0.202935,-1.232339 0.202935,-1.877157 0,-4.770592 -3.854191,-8.624783 -8.624784,-8.624783 z m -11.262948,3.991077 c -2.484393,0 -4.481509,2.014019 -4.481509,4.498414 0,0.804374 0.207529,1.564417 0.574986,2.215385 1.499179,-0.845704 3.232398,-1.335996 5.073401,-1.335996 0.177666,0 0.348799,0.0071 0.524253,0.01688 -0.01986,-0.25185 -0.03382,-0.50411 -0.03382,-0.761009 0,-1.38375 0.300543,-2.700325 0.828654,-3.889607 -0.711055,-0.476813 -1.562974,-0.7441 -2.485962,-0.7441 z m 21.274462,3.094773 c -0.183546,0 -0.360462,0.02254 -0.541166,0.03382 0.07817,0.492842 0.135286,0.990489 0.135286,1.50511 0,0.800884 -0.101857,1.573693 -0.287494,2.316853 2.176491,1.204502 3.983985,3.006733 5.174872,5.191779 1.235223,-0.643059 2.613151,-1.051954 4.075633,-1.149968 -0.37691,-4.420213 -4.038863,-7.897596 -8.557131,-7.897594 z m -7.001298,3.213155 c -6.675484,0 -12.074694,5.398759 -12.074694,12.074694 0,6.675215 5.398934,12.074693 12.074694,12.074693 6.675766,0 12.074699,-5.399487 12.074699,-12.074693 0,-6.675923 -5.399208,-12.074694 -12.074699,-12.074694 z m -13.106286,0.05074 c -5.17891,0 -9.368879,4.189967 -9.368879,9.368882 0,3.048716 1.452595,5.747623 3.703585,7.457899 0.948971,-1.830298 2.854937,-3.077863 5.056489,-3.077863 0.266077,0 0.521473,0.03226 0.777919,0.06764 -0.08052,-0.585696 -0.118388,-1.184919 -0.118388,-1.792603 0,-2.905453 0.945749,-5.592242 2.553609,-7.762302 -0.962449,-1.204336 -1.65122,-2.651398 -1.944804,-4.227834 -0.217586,-0.01509 -0.438089,-0.03382 -0.659543,-0.03382 z m 29.358085,5.58074 c -1.572555,0 -3.045636,0.401477 -4.346215,1.082328 0.738511,1.635847 1.149971,3.450876 1.149971,5.360892 0,3.576349 -1.437892,6.823712 -3.771228,9.182856 1.714151,1.903063 4.201178,3.094773 6.967472,3.094773 5.17891,0 9.368882,-4.189967 9.368882,-9.368879 0,-5.178913 -4.189972,-9.35197 -9.368882,-9.35197 z M 19.11668,46.076139 c -4.770729,0 -8.641693,3.837142 -8.641693,8.607869 0,4.77073 3.870964,8.641696 8.641693,8.641696 1.815807,0 3.497873,-0.565742 4.887378,-1.52202 -0.57417,-0.892197 -0.913211,-1.958866 -0.913211,-3.094777 0,-0.589571 0.08698,-1.155978 0.253668,-1.691133 -2.601295,-1.87992 -4.295482,-4.939131 -4.295482,-8.388023 0,-0.876289 0.115467,-1.723617 0.321319,-2.536702 -0.08543,-0.0024 -0.167618,-0.01688 -0.253672,-0.01688 z m 50.717102,7.407164 c -0.254504,0 -0.500767,0.029 -0.744099,0.06764 0.0135,0.215119 0.01688,0.42414 0.01688,0.64263 0,2.75077 -1.085355,5.247452 -2.841105,7.102764 0.863768,1.004462 2.13252,1.640398 3.568294,1.640398 2.615273,0 4.735177,-2.102991 4.735177,-4.718261 0,-2.615274 -2.119904,-4.735176 -4.735177,-4.735176 z m -41.043815,0.50734 c -2.615139,0 -4.718264,2.103125 -4.718264,4.718264 0,2.615136 2.103125,4.735175 4.718264,4.735175 2.004537,0 3.705993,-1.250799 4.396945,-3.01022 -1.685949,-1.717119 -2.897618,-3.907727 -3.432998,-6.341749 -0.313296,-0.06478 -0.631289,-0.10146 -0.963947,-0.101472 z"
       style="color:#000000;font-style:normal;font-variant:normal;font-weight:normal;font-stretch:normal;font-size:medium;line-height:normal;font-family:Sans;-inkscape-font-specification:Sans;text-indent:0;text-align:start;text-decoration:none;text-decoration-line:none;letter-spacing:normal;word-spacing:normal;text-transform:none;direction:ltr;block-progression:tb;writing-mode:lr-tb;baseline-shift:baseline;text-anchor:start;display:inline;overflow:visible;visibility:visible;fill:#ffffff;fill-opacity:1;stroke:none;stroke-width:4;marker:none;enable-background:accumulate"
       sodipodi:nodetypes="sscscsscscscscccscscccsssssscscscsccccscscssscsscscscccccscsscccssccc" />
    <path
       style="fill:#1b2b43;fill-opacity:0"
       d="m 76.670771,60.999268 -3.24577,-3.249332 0.55053,-0.463242 c 0.302792,-0.254782 0.763412,-0.898356 1.023601,-1.430162 1.562106,-3.192829 -0.796185,-6.971801 -4.350795,-6.971801 l -0.649637,0 -0.118106,1.281631 c -0.06496,0.704898 -0.24754,1.744659 -0.405736,2.310583 -0.277078,0.991198 -0.299212,1.017143 -0.603268,0.707107 -0.291036,-0.296762 -0.295836,-0.397178 -0.06159,-1.288448 0.799082,-3.040371 -0.209081,-6.531782 -2.553967,-8.844742 -1.384423,-1.365574 -2.507466,-2.003025 -4.366547,-2.478498 -1.621997,-0.414836 -2.564411,-0.433732 -4.213057,-0.08447 -1.17771,0.249496 -1.693859,0.168631 -1.693859,-0.265372 0,-0.149846 2.083409,-0.706953 2.643788,-0.706953 0.469204,0 0.471788,-0.489296 0.01046,-1.982867 -1.059527,-3.43035 -3.97056,-5.74693 -7.651534,-6.089039 l -1.21896,-0.113291 0.03023,0.866423 c 0.01664,0.476533 0.02316,1.097515 0.01453,1.37996 -0.01536,0.502153 -0.02354,0.506444 -0.369261,0.193572 -0.21361,-0.193314 -0.353554,-0.544467 -0.353554,-0.887154 0,-2.001871 -1.056769,-4.492958 -2.531698,-5.967888 -1.513775,-1.513776 -4.033251,-2.602511 -6.022547,-2.602511 -0.491949,0 -1.527248,-0.976715 -9.654396,-9.108077 C 23.631961,7.953261 21.830333,6.0616938 22.041445,5.9252906 22.772646,5.4528494 25.151432,4.2898712 26.704761,3.6454154 30.325692,2.1431383 34.579495,1.0424413 38.342128,0.63417676 39.452658,0.51367873 47.978089,0.44791647 62.488944,0.44791647 l 22.430208,0 0.336758,0.37218361 c 0.327442,0.36188762 0.336758,0.99395512 0.336758,22.84838792 0,17.700679 -0.04997,22.851802 -0.235164,24.243972 -0.715007,5.374838 -2.330142,10.529919 -4.66379,14.885586 l -0.777171,1.450555 -3.245772,-3.249333 z"
       id="path4670"
       inkscape:connector-curvature="0"
       transform="translate(0,4)" />
    <path
       style="fill:#1b2b43;fill-opacity:0"
       d="m 57.523362,68.00966 -9.837828,-9.844152 0.922345,-0.40096 c 1.308123,-0.568665 3.156429,-2.006878 4.095781,-3.187029 1.848475,-2.322324 2.75046,-4.883843 2.745968,-7.798191 -0.0033,-2.115759 -0.339158,-3.572903 -1.265394,-5.489371 -1.020712,-2.111947 -3.139713,-4.233384 -5.272731,-5.278791 -0.826431,-0.405039 -2.019673,-0.869478 -2.65165,-1.032084 -1.512005,-0.389038 -4.31129,-0.3801 -5.833631,0.01863 -3.393397,0.888789 -6.482681,3.354248 -7.898558,6.303581 -0.274085,0.570931 -0.548257,1.039101 -0.609273,1.040379 -0.06102,0.0012 -0.204752,-0.110717 -0.319413,-0.248877 -0.164365,-0.198047 -0.10804,-0.45053 0.266191,-1.193243 0.261067,-0.518123 0.614764,-1.140917 0.785993,-1.383985 0.306172,-0.434624 0.299781,-0.460966 -0.385918,-1.59099 -0.383485,-0.631976 -0.825248,-1.606458 -0.981697,-2.165514 l -0.284455,-1.016466 -1.082925,0 c -1.218328,0 -2.781569,0.359799 -3.783048,0.870717 l -0.670514,0.34207 -8.692131,-8.693928 -8.6921309,-8.693927 1.3558697,-1.767767 C 10.981078,14.782976 14.438584,11.257827 16.358517,9.7399889 22.556682,4.8399156 29.87552,1.7406728 37.658026,0.72047527 39.435383,0.48748422 42.938235,0.44791647 61.787101,0.44791647 l 22.049877,0 0.930878,0.94258723 0.93088,0.9425872 -0.06267,22.2593541 c -0.06098,21.65712 -0.07278,22.32153 -0.436325,24.557451 -1.822968,11.211886 -7.158702,20.377703 -15.911692,27.333385 -0.719209,0.571528 -1.446974,1.113705 -1.617254,1.204836 -0.258161,0.138165 -1.944164,-1.469918 -10.147428,-9.678457 z m 4.250461,-9.13803 c 3.408363,-0.803602 6.220472,-3.615711 7.024074,-7.024073 0.515769,-2.187561 0.284992,-4.135916 -0.748769,-6.321583 -1.632996,-3.452613 -5.690472,-5.682114 -9.414447,-5.173048 -1.790276,0.24473 -3.423387,0.868421 -3.294972,1.258362 0.805617,2.446342 0.871037,2.818837 0.889315,5.063735 0.01391,1.709688 -0.06232,2.592301 -0.297782,3.447145 -0.442661,1.607107 -1.399475,3.467666 -2.460304,4.784142 l -0.90202,1.119394 0.833611,0.754718 c 2.158957,1.954629 5.456627,2.77841 8.371294,2.091208 z m 11.028991,-0.856764 c 1.651059,-0.805474 2.625194,-2.397325 2.625194,-4.289879 0,-2.610612 -1.735746,-4.499262 -4.389963,-4.776681 l -1.035558,-0.108239 -0.123035,1.475308 c -0.193148,2.316002 -0.774747,3.732873 -2.516363,6.13028 -0.272236,0.374745 -0.270813,0.424492 0.02139,0.747369 0.17217,0.190245 0.719943,0.551662 1.217274,0.80315 0.783158,0.39602 1.081773,0.448959 2.230065,0.395347 0.795712,-0.03715 1.58379,-0.187751 1.971,-0.376655 z M 56.336125,40.045897 c 0.826431,-0.28908 1.770169,-0.526664 2.097197,-0.527965 l 0.594597,-0.0024 -0.125485,-0.839689 c -0.398571,-2.667052 -2.232101,-5.092614 -4.838954,-6.40141 -0.824946,-0.414172 -2.764413,-0.882533 -3.67535,-0.88756 l -0.556306,-0.0031 0.01085,1.458408 c 0.006,0.802124 -0.04613,1.706965 -0.115782,2.010757 -0.119041,0.519243 -0.07608,0.581972 0.716703,1.046577 1.081343,0.633709 3.214972,2.765231 3.846286,3.842487 0.268867,0.458788 0.501178,0.833095 0.516246,0.831794 0.01506,-0.0013 0.703563,-0.238885 1.529994,-0.527964 z M 34.794753,37.142055 c 1.487164,-1.376886 3.842384,-2.590682 5.878366,-3.0295 2.006933,-0.432555 4.837586,-0.285454 6.714582,0.348941 0.766157,0.258948 1.426278,0.437549 1.466939,0.39689 0.04066,-0.04066 0.11801,-0.620304 0.171894,-1.288101 0.193252,-2.395068 -0.668748,-4.687006 -2.467179,-6.559884 -4.202884,-4.376868 -11.392403,-3.176195 -14.026041,2.342392 -1.036285,2.171454 -1.095075,5.053497 -0.145479,7.131499 0.501677,1.097815 0.919817,1.793838 1.077661,1.793838 0.0562,0 0.654371,-0.511233 1.329257,-1.136075 z m -6.678219,-3.022396 c 0.596402,-0.140647 1.462228,-0.256897 1.924057,-0.258334 l 0.839689,-0.0026 0,-1.023519 c 0,-0.562937 0.128904,-1.497644 0.286454,-2.077126 0.520157,-1.91318 0.546274,-1.773064 -0.389967,-2.092073 -2.30181,-0.784305 -4.532652,0.0043 -5.609642,1.98313 -0.642595,1.180658 -0.773116,2.344827 -0.404898,3.611451 l 0.288162,0.991242 0.990889,-0.438219 c 0.544988,-0.241021 1.478854,-0.553293 2.075256,-0.693939 z"
       id="path4672"
       inkscape:connector-curvature="0"
       transform="translate(0,4)" />
  </g>
</svg>
