<?xml version="1.0" encoding="UTF-8" standalone="no"?>
<!-- Created with Inkscape (http://www.inkscape.org/) -->

<svg
   xmlns:dc="http://purl.org/dc/elements/1.1/"
   xmlns:cc="http://creativecommons.org/ns#"
   xmlns:rdf="http://www.w3.org/1999/02/22-rdf-syntax-ns#"
   xmlns:svg="http://www.w3.org/2000/svg"
   xmlns="http://www.w3.org/2000/svg"
   xmlns:xlink="http://www.w3.org/1999/xlink"
   xmlns:sodipodi="http://sodipodi.sourceforge.net/DTD/sodipodi-0.dtd"
   xmlns:inkscape="http://www.inkscape.org/namespaces/inkscape"
   width="86"
   height="86"
   id="svg2"
   version="1.1"
   inkscape:version="0.92.2 2405546, 2018-03-11"
   sodipodi:docname="icon_gray.svg"
   inkscape:export-filename="/home/hauke/Programme/harbour-owncloud/app/icons/128x128/harbour-owncloud.png"
   inkscape:export-xdpi="134.89462"
   inkscape:export-ydpi="134.89462">
  <defs
     id="defs4">
    <linearGradient
       id="linearGradient3789-6">
      <stop
         style="stop-color:#1b2d43;stop-opacity:0.93333334"
         offset="0"
         id="stop3791-0" />
      <stop
         style="stop-color:#1b2d43;stop-opacity:1"
         offset="1"
         id="stop3793-4" />
    </linearGradient>
    <linearGradient
       y2="339.22189"
       x2="288.49411"
       y1="55.888199"
       x1="288.49411"
       gradientUnits="userSpaceOnUse"
       id="linearGradient3353"
       xlink:href="#SVGID_1_"
       inkscape:collect="always" />
    <linearGradient
       y2="339.22159"
       x2="251.2114"
       y1="55.888199"
       x1="251.2114"
       gradientUnits="userSpaceOnUse"
       id="linearGradient3355"
       xlink:href="#SVGID_2_"
       inkscape:collect="always" />
    <linearGradient
       y2="339.22171"
       x2="293.22461"
       y1="55.888199"
       x1="293.22461"
       gradientUnits="userSpaceOnUse"
       id="linearGradient3357"
       xlink:href="#SVGID_3_"
       inkscape:collect="always" />
    <linearGradient
       y2="339.22159"
       x2="375.33401"
       y1="55.888199"
       x1="375.33401"
       gradientUnits="userSpaceOnUse"
       id="linearGradient3359"
       xlink:href="#SVGID_4_"
       inkscape:collect="always" />
    <linearGradient
       y2="339.22159"
       x2="334.49411"
       y1="55.888199"
       x1="334.49411"
       gradientUnits="userSpaceOnUse"
       id="linearGradient3361"
       xlink:href="#SVGID_5_"
       inkscape:collect="always" />
    <linearGradient
       y2="339.2236"
       x2="458.42679"
       y1="55.8867"
       x1="458.42679"
       gradientUnits="userSpaceOnUse"
       id="linearGradient3363"
       xlink:href="#SVGID_6_"
       inkscape:collect="always" />
    <linearGradient
       y2="339.22131"
       x2="413.16309"
       y1="55.888199"
       x1="413.16309"
       gradientUnits="userSpaceOnUse"
       id="linearGradient3365"
       xlink:href="#SVGID_7_"
       inkscape:collect="always" />
    <linearGradient
       y2="339.2236"
       x2="290.76169"
       y1="55.8867"
       x1="290.76169"
       gradientUnits="userSpaceOnUse"
       id="linearGradient3367"
       xlink:href="#SVGID_8_"
       inkscape:collect="always" />
    <linearGradient
       y2="339.22119"
       x2="346.77341"
       y1="55.888199"
       x1="346.77341"
       gradientUnits="userSpaceOnUse"
       id="linearGradient3369"
       xlink:href="#SVGID_9_"
       inkscape:collect="always" />
    <linearGradient
       id="SVGID_1_"
       gradientUnits="userSpaceOnUse"
       x1="288.49411"
       y1="55.888199"
       x2="288.49411"
       y2="339.22189">
      <stop
         offset="0"
         style="stop-color:#BED5E1"
         id="stop261" />
      <stop
         offset="1"
         style="stop-color:#567B8F"
         id="stop263" />
    </linearGradient>
    <linearGradient
       id="SVGID_2_"
       gradientUnits="userSpaceOnUse"
       x1="251.2114"
       y1="55.888199"
       x2="251.2114"
       y2="339.22159">
      <stop
         offset="0"
         style="stop-color:#BED5E1"
         id="stop268" />
      <stop
         offset="1"
         style="stop-color:#567B8F"
         id="stop270" />
    </linearGradient>
    <linearGradient
       id="SVGID_3_"
       gradientUnits="userSpaceOnUse"
       x1="293.22461"
       y1="55.888199"
       x2="293.22461"
       y2="339.22171">
      <stop
         offset="0"
         style="stop-color:#BED5E1"
         id="stop275" />
      <stop
         offset="1"
         style="stop-color:#567B8F"
         id="stop277" />
    </linearGradient>
    <linearGradient
       id="SVGID_4_"
       gradientUnits="userSpaceOnUse"
       x1="375.33401"
       y1="55.888199"
       x2="375.33401"
       y2="339.22159">
      <stop
         offset="0"
         style="stop-color:#BED5E1"
         id="stop282" />
      <stop
         offset="1"
         style="stop-color:#567B8F"
         id="stop284" />
    </linearGradient>
    <linearGradient
       id="SVGID_5_"
       gradientUnits="userSpaceOnUse"
       x1="334.49411"
       y1="55.888199"
       x2="334.49411"
       y2="339.22159">
      <stop
         offset="0"
         style="stop-color:#BED5E1"
         id="stop289" />
      <stop
         offset="1"
         style="stop-color:#567B8F"
         id="stop291" />
    </linearGradient>
    <linearGradient
       id="SVGID_6_"
       gradientUnits="userSpaceOnUse"
       x1="458.42679"
       y1="55.8867"
       x2="458.42679"
       y2="339.2236">
      <stop
         offset="0"
         style="stop-color:#BED5E1"
         id="stop296" />
      <stop
         offset="1"
         style="stop-color:#567B8F"
         id="stop298" />
    </linearGradient>
    <linearGradient
       id="SVGID_7_"
       gradientUnits="userSpaceOnUse"
       x1="413.16309"
       y1="55.888199"
       x2="413.16309"
       y2="339.22131">
      <stop
         offset="0"
         style="stop-color:#BED5E1"
         id="stop303" />
      <stop
         offset="1"
         style="stop-color:#567B8F"
         id="stop305" />
    </linearGradient>
    <linearGradient
       id="SVGID_8_"
       gradientUnits="userSpaceOnUse"
       x1="290.76169"
       y1="55.8867"
       x2="290.76169"
       y2="339.2236">
      <stop
         offset="0"
         style="stop-color:#BED5E1"
         id="stop310" />
      <stop
         offset="1"
         style="stop-color:#567B8F"
         id="stop312" />
    </linearGradient>
    <linearGradient
       id="SVGID_9_"
       gradientUnits="userSpaceOnUse"
       x1="346.77341"
       y1="55.888199"
       x2="346.77341"
       y2="339.22119">
      <stop
         offset="0"
         style="stop-color:#BED5E1"
         id="stop317" />
      <stop
         offset="1"
         style="stop-color:#567B8F"
         id="stop319" />
    </linearGradient>
  </defs>
  <sodipodi:namedview
     id="base"
     pagecolor="#ffffff"
     bordercolor="#666666"
     borderopacity="1.0"
     inkscape:pageopacity="0.0"
     inkscape:pageshadow="2"
     inkscape:zoom="22.627416"
     inkscape:cx="39.07483"
     inkscape:cy="39.518939"
     inkscape:document-units="px"
     inkscape:current-layer="layer2"
     showgrid="true"
     inkscape:window-width="3200"
     inkscape:window-height="1671"
     inkscape:window-x="0"
     inkscape:window-y="55"
     inkscape:window-maximized="1"
     inkscape:snap-bbox="true"
     inkscape:snap-global="true"
     showguides="true">
    <inkscape:grid
       type="xygrid"
       id="grid2985"
       empspacing="5"
       visible="true"
       enabled="true"
       snapvisiblegridlinesonly="true" />
    <sodipodi:guide
       position="0,0"
       orientation="0,86"
       id="guide4694"
       inkscape:locked="false" />
    <sodipodi:guide
       position="86,0"
       orientation="-86,0"
       id="guide4696"
       inkscape:locked="false" />
    <sodipodi:guide
       position="86,86"
       orientation="0,-86"
       id="guide4698"
       inkscape:locked="false" />
    <sodipodi:guide
       position="0,86"
       orientation="86,0"
       id="guide4700"
       inkscape:locked="false" />
  </sodipodi:namedview>
  <metadata
     id="metadata7">
    <rdf:RDF>
      <cc:Work
         rdf:about="">
        <dc:format>image/svg+xml</dc:format>
        <dc:type
           rdf:resource="http://purl.org/dc/dcmitype/StillImage" />
        <dc:title />
      </cc:Work>
    </rdf:RDF>
  </metadata>
  <g
     inkscape:groupmode="layer"
     id="layer2"
     inkscape:label="Ebene"
     style="display:inline;opacity:0.5"
     transform="translate(0,-4)">
    <path
       inkscape:connector-curvature="0"
       id="circle238"
       d="m 39.494842,28.911118 c -4.770587,0 -8.624783,3.854191 -8.624783,8.624783 0,1.966452 0.6548,3.776322 1.758781,5.225603 2.394927,-2.771963 5.929624,-4.532238 9.876218,-4.532238 1.930853,0 3.761825,0.429964 5.411633,1.183792 0.133578,-0.604079 0.202935,-1.232339 0.202935,-1.877157 0,-4.770592 -3.854191,-8.624783 -8.624784,-8.624783 z m -11.262948,3.991077 c -2.484393,0 -4.481509,2.014019 -4.481509,4.498414 0,0.804374 0.207529,1.564417 0.574986,2.215385 1.499179,-0.845704 3.232398,-1.335996 5.073401,-1.335996 0.177666,0 0.348799,0.0071 0.524253,0.01688 -0.01986,-0.25185 -0.03382,-0.50411 -0.03382,-0.761009 0,-1.38375 0.300543,-2.700325 0.828654,-3.889607 -0.711055,-0.476813 -1.562974,-0.7441 -2.485962,-0.7441 z m 21.274462,3.094773 c -0.183546,0 -0.360462,0.02254 -0.541166,0.03382 0.07817,0.492842 0.135286,0.990489 0.135286,1.50511 0,0.800884 -0.101857,1.573693 -0.287494,2.316853 2.176491,1.204502 3.983985,3.006733 5.174872,5.191779 1.235223,-0.643059 2.613151,-1.051954 4.075633,-1.149968 -0.37691,-4.420213 -4.038863,-7.897596 -8.557131,-7.897594 z m -7.001298,3.213155 c -6.675484,0 -12.074694,5.398759 -12.074694,12.074694 0,6.675215 5.398934,12.074693 12.074694,12.074693 6.675766,0 12.074699,-5.399487 12.074699,-12.074693 0,-6.675923 -5.399208,-12.074694 -12.074699,-12.074694 z m -13.106286,0.05074 c -5.17891,0 -9.368879,4.189967 -9.368879,9.368882 0,3.048716 1.452595,5.747623 3.703585,7.457899 0.948971,-1.830298 2.854937,-3.077863 5.056489,-3.077863 0.266077,0 0.521473,0.03226 0.777919,0.06764 -0.08052,-0.585696 -0.118388,-1.184919 -0.118388,-1.792603 0,-2.905453 0.945749,-5.592242 2.553609,-7.762302 -0.962449,-1.204336 -1.65122,-2.651398 -1.944804,-4.227834 -0.217586,-0.01509 -0.438089,-0.03382 -0.659543,-0.03382 z m 29.358085,5.58074 c -1.572555,0 -3.045636,0.401477 -4.346215,1.082328 0.738511,1.635847 1.149971,3.450876 1.149971,5.360892 0,3.576349 -1.437892,6.823712 -3.771228,9.182856 1.714151,1.903063 4.201178,3.094773 6.967472,3.094773 5.17891,0 9.368882,-4.189967 9.368882,-9.368879 0,-5.178913 -4.189972,-9.35197 -9.368882,-9.35197 z M 19.11668,46.076139 c -4.770729,0 -8.641693,3.837142 -8.641693,8.607869 0,4.77073 3.870964,8.641696 8.641693,8.641696 1.815807,0 3.497873,-0.565742 4.887378,-1.52202 -0.57417,-0.892197 -0.913211,-1.958866 -0.913211,-3.094777 0,-0.589571 0.08698,-1.155978 0.253668,-1.691133 -2.601295,-1.87992 -4.295482,-4.939131 -4.295482,-8.388023 0,-0.876289 0.115467,-1.723617 0.321319,-2.536702 -0.08543,-0.0024 -0.167618,-0.01688 -0.253672,-0.01688 z m 50.717102,7.407164 c -0.254504,0 -0.500767,0.029 -0.744099,0.06764 0.0135,0.215119 0.01688,0.42414 0.01688,0.64263 0,2.75077 -1.085355,5.247452 -2.841105,7.102764 0.863768,1.004462 2.13252,1.640398 3.568294,1.640398 2.615273,0 4.735177,-2.102991 4.735177,-4.718261 0,-2.615274 -2.119904,-4.735176 -4.735177,-4.735176 z m -41.043815,0.50734 c -2.615139,0 -4.718264,2.103125 -4.718264,4.718264 0,2.615136 2.103125,4.735175 4.718264,4.735175 2.004537,0 3.705993,-1.250799 4.396945,-3.01022 -1.685949,-1.717119 -2.897618,-3.907727 -3.432998,-6.341749 -0.313296,-0.06478 -0.631289,-0.10146 -0.963947,-0.101472 z"
       style="color:#000000;font-style:normal;font-variant:normal;font-weight:normal;font-stretch:normal;font-size:medium;line-height:normal;font-family:Sans;-inkscape-font-specification:Sans;text-indent:0;text-align:start;text-decoration:none;text-decoration-line:none;letter-spacing:normal;word-spacing:normal;text-transform:none;direction:ltr;block-progression:tb;writing-mode:lr-tb;baseline-shift:baseline;text-anchor:start;display:inline;overflow:visible;visibility:visible;fill:#ffffff;fill-opacity:1;stroke:none;stroke-width:4;marker:none;enable-background:accumulate"
       sodipodi:nodetypes="sscscsscscscscccscscccsssssscscscsccccscscssscsscscscccccscsscccssccc" />
    <path
       style="fill:#1b2b43;fill-opacity:0"
       d="m 76.670771,60.999268 -3.24577,-3.249332 0.55053,-0.463242 c 0.302792,-0.254782 0.763412,-0.898356 1.023601,-1.430162 1.562106,-3.192829 -0.796185,-6.971801 -4.350795,-6.971801 l -0.649637,0 -0.118106,1.281631 c -0.06496,0.704898 -0.24754,1.744659 -0.405736,2.310583 -0.277078,0.991198 -0.299212,1.017143 -0.603268,0.707107 -0.291036,-0.296762 -0.295836,-0.397178 -0.06159,-1.288448 0.799082,-3.040371 -0.209081,-6.531782 -2.553967,-8.844742 -1.384423,-1.365574 -2.507466,-2.003025 -4.366547,-2.478498 -1.621997,-0.414836 -2.564411,-0.433732 -4.213057,-0.08447 -1.17771,0.249496 -1.693859,0.168631 -1.693859,-0.265372 0,-0.149846 2.083409,-0.706953 2.643788,-0.706953 0.469204,0 0.471788,-0.489296 0.01046,-1.982867 -1.059527,-3.43035 -3.97056,-5.74693 -7.651534,-6.089039 l -1.21896,-0.113291 0.03023,0.866423 c 0.01664,0.476533 0.02316,1.097515 0.01453,1.37996 -0.01536,0.502153 -0.02354,0.506444 -0.369261,0.193572 -0.21361,-0.193314 -0.353554,-0.544467 -0.353554,-0.887154 0,-2.001871 -1.056769,-4.492958 -2.531698,-5.967888 -1.513775,-1.513776 -4.033251,-2.602511 -6.022547,-2.602511 -0.491949,0 -1.527248,-0.976715 -9.654396,-9.108077 C 23.631961,7.953261 21.830333,6.0616938 22.041445,5.9252906 22.772646,5.4528494 25.151432,4.2898712 26.704761,3.6454154 30.325692,2.1431383 34.579495,1.0424413 38.342128,0.63417676 39.452658,0.51367873 47.978089,0.44791647 62.488944,0.44791647 l 22.430208,0 0.336758,0.37218361 c 0.327442,0.36188762 0.336758,0.99395512 0.336758,22.84838792 0,17.700679 -0.04997,22.851802 -0.235164,24.243972 -0.715007,5.374838 -2.330142,10.529919 -4.66379,14.885586 l -0.777171,1.450555 -3.245772,-3.249333 z"
       id="path4670"
       inkscape:connector-curvature="0"
       transform="translate(0,4)" />
    <path
       style="fill:#1b2b43;fill-opacity:0"
       d="m 57.523362,68.00966 -9.837828,-9.844152 0.922345,-0.40096 c 1.308123,-0.568665 3.156429,-2.006878 4.095781,-3.187029 1.848475,-2.322324 2.75046,-4.883843 2.745968,-7.798191 -0.0033,-2.115759 -0.339158,-3.572903 -1.265394,-5.489371 -1.020712,-2.111947 -3.139713,-4.233384 -5.272731,-5.278791 -0.826431,-0.405039 -2.019673,-0.869478 -2.65165,-1.032084 -1.512005,-0.389038 -4.31129,-0.3801 -5.833631,0.01863 -3.393397,0.888789 -6.482681,3.354248 -7.898558,6.303581 -0.274085,0.570931 -0.548257,1.039101 -0.609273,1.040379 -0.06102,0.0012 -0.204752,-0.110717 -0.319413,-0.248877 -0.164365,-0.198047 -0.10804,-0.45053 0.266191,-1.193243 0.261067,-0.518123 0.614764,-1.140917 0.785993,-1.383985 0.306172,-0.434624 0.299781,-0.460966 -0.385918,-1.59099 -0.383485,-0.631976 -0.825248,-1.606458 -0.981697,-2.165514 l -0.284455,-1.016466 -1.082925,0 c -1.218328,0 -2.781569,0.359799 -3.783048,0.870717 l -0.670514,0.34207 -8.692131,-8.693928 -8.6921309,-8.693927 1.3558697,-1.767767 C 10.981078,14.782976 14.438584,11.257827 16.358517,9.7399889 22.556682,4.8399156 29.87552,1.7406728 37.658026,0.72047527 39.435383,0.48748422 42.938235,0.44791647 61.787101,0.44791647 l 22.049877,0 0.930878,0.94258723 0.93088,0.9425872 -0.06267,22.2593541 c -0.06098,21.65712 -0.07278,22.32153 -0.436325,24.557451 -1.822968,11.211886 -7.158702,20.377703 -15.911692,27.333385 -0.719209,0.571528 -1.446974,1.113705 -1.617254,1.204836 -0.258161,0.138165 -1.944164,-1.469918 -10.147428,-9.678457 z m 4.250461,-9.13803 c 3.408363,-0.803602 6.220472,-3.615711 7.024074,-7.024073 0.515769,-2.187561 0.284992,-4.135916 -0.748769,-6.321583 -1.632996,-3.452613 -5.690472,-5.682114 -9.414447,-5.173048 -1.790276,0.24473 -3.423387,0.868421 -3.294972,1.258362 0.805617,2.446342 0.871037,2.818837 0.889315,5.063735 0.01391,1.709688 -0.06232,2.592301 -0.297782,3.447145 -0.442661,1.607107 -1.399475,3.467666 -2.460304,4.784142 l -0.90202,1.119394 0.833611,0.754718 c 2.158957,1.954629 5.456627,2.77841 8.371294,2.091208 z m 11.028991,-0.856764 c 1.651059,-0.805474 2.625194,-2.397325 2.625194,-4.289879 0,-2.610612 -1.735746,-4.499262 -4.389963,-4.776681 l -1.035558,-0.108239 -0.123035,1.475308 c -0.193148,2.316002 -0.774747,3.732873 -2.516363,6.13028 -0.272236,0.374745 -0.270813,0.424492 0.02139,0.747369 0.17217,0.190245 0.719943,0.551662 1.217274,0.80315 0.783158,0.39602 1.081773,0.448959 2.230065,0.395347 0.795712,-0.03715 1.58379,-0.187751 1.971,-0.376655 z M 56.336125,40.045897 c 0.826431,-0.28908 1.770169,-0.526664 2.097197,-0.527965 l 0.594597,-0.0024 -0.125485,-0.839689 c -0.398571,-2.667052 -2.232101,-5.092614 -4.838954,-6.40141 -0.824946,-0.414172 -2.764413,-0.882533 -3.67535,-0.88756 l -0.556306,-0.0031 0.01085,1.458408 c 0.006,0.802124 -0.04613,1.706965 -0.115782,2.010757 -0.119041,0.519243 -0.07608,0.581972 0.716703,1.046577 1.081343,0.633709 3.214972,2.765231 3.846286,3.842487 0.268867,0.458788 0.501178,0.833095 0.516246,0.831794 0.01506,-0.0013 0.703563,-0.238885 1.529994,-0.527964 z M 34.794753,37.142055 c 1.487164,-1.376886 3.842384,-2.590682 5.878366,-3.0295 2.006933,-0.432555 4.837586,-0.285454 6.714582,0.348941 0.766157,0.258948 1.426278,0.437549 1.466939,0.39689 0.04066,-0.04066 0.11801,-0.620304 0.171894,-1.288101 0.193252,-2.395068 -0.668748,-4.687006 -2.467179,-6.559884 -4.202884,-4.376868 -11.392403,-3.176195 -14.026041,2.342392 -1.036285,2.171454 -1.095075,5.053497 -0.145479,7.131499 0.501677,1.097815 0.919817,1.793838 1.077661,1.793838 0.0562,0 0.654371,-0.511233 1.329257,-1.136075 z m -6.678219,-3.022396 c 0.596402,-0.140647 1.462228,-0.256897 1.924057,-0.258334 l 0.839689,-0.0026 0,-1.023519 c 0,-0.562937 0.128904,-1.497644 0.286454,-2.077126 0.520157,-1.91318 0.546274,-1.773064 -0.389967,-2.092073 -2.30181,-0.784305 -4.532652,0.0043 -5.609642,1.98313 -0.642595,1.180658 -0.773116,2.344827 -0.404898,3.611451 l 0.288162,0.991242 0.990889,-0.438219 c 0.544988,-0.241021 1.478854,-0.553293 2.075256,-0.693939 z"
       id="path4672"
       inkscape:connector-curvature="0"
       transform="translate(0,4)" />
    <path
       style="opacity:1;fill:#0000ff;fill-opacity:0;stroke-width:0.125"
       d="m 2.5790974,83.452848 c -1.1588156,-1.195334 -2.15794507,-2.141809 -2.22028771,-2.10328 -0.1217229,0.07523 -0.0453834,-38.164809 0.0807445,-40.4466 0.0969988,-1.754814 0.15429136,-2.374848 0.38693493,-4.187501 0.0352947,-0.275 0.0781884,-0.61534 0.0953194,-0.756312 0.017131,-0.140971 0.0630964,-0.309721 0.10214538,-0.375 0.057193,-0.09561 0.1978962,-0.867464 0.2950741,-1.618688 0.00889,-0.06875 0.057905,-0.220743 0.108915,-0.337763 0.05101,-0.117022 0.058718,-0.267822 0.017129,-0.335113 -0.041589,-0.06729 -0.014613,-0.160051 0.059945,-0.20613 0.074558,-0.04608 0.1060575,-0.160665 0.069998,-0.254635 -0.036059,-0.09397 -0.00794,-0.206469 0.0625,-0.25 0.070434,-0.04353 0.098559,-0.15603 0.0625,-0.25 -0.036059,-0.09397 -0.017421,-0.200605 0.041418,-0.23697 0.098144,-0.06066 0.437035,-1.213247 0.4423281,-1.504389 0.00125,-0.06875 0.030398,-0.153125 0.064773,-0.1875 0.1376386,-0.137638 0.6153135,-1.664546 0.5525188,-1.76615 -0.037,-0.05987 -0.00169,-0.10885 0.078478,-0.10885 0.080163,0 0.1147675,-0.08074 0.076899,-0.179423 -0.037868,-0.09868 -0.021286,-0.197122 0.036849,-0.21875 0.1531489,-0.05698 0.7630689,-1.613055 0.6830205,-1.742577 -0.037136,-0.06009 -0.018368,-0.10925 0.041706,-0.10925 0.1460852,0 0.5522785,-0.863681 0.4693212,-0.997908 -0.035943,-0.05816 -0.015591,-0.124605 0.045226,-0.147665 0.060817,-0.02306 0.3491659,-0.520052 0.6407755,-1.104427 0.2916096,-0.584375 0.7578258,-1.453991 1.036036,-1.932481 0.2782101,-0.478489 0.5058366,-0.942551 0.5058366,-1.03125 0,-0.0887 0.039565,-0.161269 0.087922,-0.161269 0.1160464,0 1.5650116,-2.285113 1.5257767,-2.40625 -0.016701,-0.05156 0.021372,-0.09375 0.084606,-0.09375 0.1211517,0 1.4732481,-1.798112 1.3779007,-1.832429 -0.030454,-0.01096 0.1022781,-0.143936 0.2949611,-0.2955 0.1926831,-0.151565 0.3233228,-0.302582 0.2903098,-0.335595 -0.03301,-0.03301 0.134665,-0.230961 0.372616,-0.439885 0.237951,-0.208923 0.408633,-0.403867 0.379293,-0.433207 -0.02934,-0.02934 0.21994,-0.308971 0.553955,-0.621404 0.334016,-0.312432 0.596067,-0.604379 0.582336,-0.64877 -0.02793,-0.0903 1.684987,-1.817936 1.784573,-1.799911 0.03488,0.0063 0.527772,-0.423891 1.09532,-0.956008 0.567547,-0.532117 1.048291,-0.951098 1.068319,-0.93107 0.02003,0.02003 0.300572,-0.2061069 0.623431,-0.502523 0.322859,-0.2964161 0.588886,-0.5056967 0.591174,-0.4650681 0.0023,0.040629 0.107803,-0.0503 0.234482,-0.2020641 0.126678,-0.151764 0.257711,-0.2485467 0.291185,-0.2150728 0.03347,0.033474 0.237333,-0.1039861 0.453018,-0.3054667 0.215686,-0.2014808 0.392156,-0.3433123 0.392156,-0.3151812 0,0.028131 0.39375,-0.2106786 0.875,-0.5306882 0.48125,-0.3200097 0.875,-0.620458 0.875,-0.6676629 0,-0.047205 0.07031,-0.087652 0.15625,-0.089884 0.194169,-0.00504 1.872605,-1.0230682 1.998086,-1.211906 0.05051,-0.076012 0.0927,-0.095728 0.09375,-0.043812 10e-4,0.051916 0.465977,-0.153435 1.033164,-0.4563347 0.567188,-0.3028998 1.59375,-0.7933426 2.28125,-1.0898728 0.6875,-0.2965303 1.291326,-0.5974296 1.341836,-0.6686653 0.05051,-0.071236 0.0927,-0.088525 0.09375,-0.03842 0.0024,0.1159598 1.800073,-0.5403884 1.85634,-0.677782 0.02306,-0.056306 0.08738,-0.074281 0.14294,-0.039945 0.08801,0.054392 0.810892,-0.1529646 1.377634,-0.3951711 0.103125,-0.044072 0.257813,-0.068793 0.34375,-0.054937 0.08594,0.013857 0.15625,-0.036841 0.15625,-0.1126622 0,-0.075821 0.0464,-0.1091798 0.103111,-0.07413 0.05671,0.035049 0.436399,-0.024238 0.84375,-0.1317508 0.852983,-0.2251281 3.934622,-0.89574793 4.490639,-0.97724317 0.452198,-0.0662786 1.297885,-0.1756269 2.0625,-0.26668385 0.309375,-0.036843 10.83623,-0.0768439 23.393012,-0.0888909 22.669346,-0.0217489 22.832491,-0.0201388 23.111001,0.22809644 0.652559,0.58162108 0.623258,-0.51123617 0.590583,22.02723538 -0.02952,20.364568 -0.03227,20.583087 -0.09459,7.535265 l -0.06419,-13.4375 -0.04709,14.5625 c -0.04671,14.446103 -0.06309,15.789778 -0.205699,16.875001 -0.04066,0.309375 -0.09231,0.73125 -0.114798,0.9375 -0.02248,0.20625 -0.08118,0.473437 -0.130427,0.59375 -0.04925,0.120312 -0.05786,0.301323 -0.01913,0.402246 0.03873,0.100924 0.01393,0.218407 -0.05511,0.261074 -0.06904,0.04267 -0.113209,0.171031 -0.09816,0.285253 0.01505,0.114223 -0.0422,0.452417 -0.127235,0.751544 -0.08503,0.299128 -0.123265,0.575203 -0.08497,0.613499 0.0383,0.0383 0.02123,0.131057 -0.03792,0.206132 -0.105276,0.133622 -0.403655,1.266399 -0.463988,1.761502 -0.01676,0.1375 -0.04372,0.278125 -0.05992,0.3125 -0.0162,0.03437 -0.04024,0.11875 -0.05343,0.1875 -0.01318,0.06875 -0.09448,0.29375 -0.180647,0.5 -0.08617,0.20625 -0.165258,0.501522 -0.175743,0.656161 -0.01049,0.15464 -0.06727,0.281202 -0.126186,0.28125 -0.05892,4.9e-5 -0.07475,0.08446 -0.03517,0.187589 0.03957,0.103125 0.01145,0.1875 -0.0625,0.1875 -0.07395,0 -0.102074,0.08438 -0.0625,0.1875 0.03957,0.103125 0.02478,0.1875 -0.03288,0.1875 -0.10222,0 -0.472526,1.139596 -0.401641,1.236025 0.01962,0.02669 -0.01481,0.08294 -0.07652,0.125 -0.136161,0.09281 -0.700826,1.47625 -0.700826,1.717035 0,0.09457 -0.04034,0.17194 -0.08965,0.17194 -0.10347,0 -0.691891,1.390552 -0.647959,1.53125 0.0161,0.05156 -0.0303,0.09375 -0.103104,0.09375 -0.07281,0 -0.09761,0.05625 -0.05512,0.125 0.04249,0.06875 0.01436,0.125 -0.0625,0.125 -0.07686,0 -0.10499,0.05625 -0.0625,0.125 0.04249,0.06875 0.01436,0.125 -0.0625,0.125 -0.07686,0 -0.10499,0.05625 -0.0625,0.125 0.04249,0.06875 0.01436,0.125 -0.0625,0.125 -0.07686,0 -0.10499,0.05625 -0.0625,0.125 0.04249,0.06875 0.03175,0.125057 -0.02387,0.125127 -0.05562,7e-5 -0.25906,0.28132 -0.452089,0.625 -0.193027,0.34368 -0.317398,0.624873 -0.27638,0.624873 0.04102,0 -0.04011,0.123106 -0.180288,0.27357 -0.239354,0.256915 -0.304772,0.410391 -0.269673,0.63268 0.0081,0.05156 -0.04,0.09375 -0.106987,0.09375 -0.131825,0 -0.571042,0.752565 -0.52891,0.90625 0.01413,0.05156 -0.02394,0.09375 -0.08462,0.09375 -0.134554,0 -1.214777,1.639241 -1.170932,1.776891 0.01719,0.05396 -0.01824,0.09811 -0.07873,0.09811 -0.158773,0 -1.141397,1.331954 -1.05003,1.423322 0.04217,0.04217 0.02164,0.07668 -0.04563,0.07668 -0.06727,0 -0.652911,0.625489 -1.30143,1.389976 -1.136953,1.340263 -4.808323,5.002966 -4.911441,4.899848 -0.02771,-0.02771 -0.19175,0.117623 -0.364534,0.322966 -0.172784,0.205341 -0.34212,0.34538 -0.376304,0.311196 -0.03418,-0.03418 -0.181064,0.08902 -0.326402,0.273789 -0.145338,0.184766 -0.266122,0.286166 -0.268409,0.225332 -0.0023,-0.06083 -0.114788,0.02219 -0.25,0.18449 -0.135213,0.162305 -0.247713,0.24668 -0.25,0.1875 -0.0023,-0.05918 -0.107804,0.01657 -0.234483,0.168338 -0.126677,0.151764 -0.254547,0.25171 -0.284155,0.222102 -0.02961,-0.02961 -0.233465,0.110239 -0.453017,0.310769 -0.219553,0.200531 -0.399186,0.338849 -0.399186,0.307374 0,-0.03148 -0.225,0.09167 -0.5,0.273658 -0.275,0.181986 -0.5,0.382978 -0.5,0.44665 0,0.06367 -0.05665,0.08076 -0.125883,0.03797 -0.06924,-0.04279 -0.156031,7.5e-4 -0.19288,0.09679 -0.03685,0.09602 -0.134887,0.176034 -0.217866,0.177797 -0.22676,0.0048 -1.713371,0.92492 -1.713371,1.060445 0,0.06477 -0.05625,0.083 -0.125,0.04051 -0.06875,-0.04249 -0.125,-0.0083 -0.125,0.07596 0,0.08427 -0.03268,0.120532 -0.07262,0.08059 -0.0836,-0.0836 -3.09351,1.3983 -3.156805,1.554228 -0.02306,0.05681 -0.09337,0.07149 -0.15625,0.03263 -0.06288,-0.03886 -0.114324,-0.0078 -0.114324,0.0691 0,0.07686 -0.05203,0.107595 -0.115632,0.06829 -0.138215,-0.08542 -0.759368,0.178667 -0.759368,0.322852 0,0.05556 -0.07712,0.07142 -0.171382,0.03525 -0.09426,-0.03617 -0.248948,0.0078 -0.34375,0.09767 -0.0948,0.08989 -0.228618,0.166577 -0.297368,0.17041 -0.283667,0.01582 -0.8125,0.21446 -0.8125,0.305192 0,0.05366 -0.07031,0.08975 -0.15625,0.0802 -0.218135,-0.02424 -2.021965,0.586705 -2.073176,0.702168 -0.02306,0.05199 -0.08865,0.06565 -0.14576,0.03036 -0.05711,-0.03529 -0.263242,2.3e-5 -0.458074,0.07848 -0.194832,0.07846 -0.52299,0.164207 -0.72924,0.190546 -0.20625,0.02634 -0.39176,0.0972 -0.412243,0.157466 -0.02048,0.06027 -0.147047,0.08087 -0.28125,0.04577 -0.134204,-0.03509 -0.244119,-0.01506 -0.244257,0.04452 -1.25e-4,0.05958 -0.206136,0.123075 -0.457772,0.141098 -0.251638,0.01802 -0.523888,0.08785 -0.605001,0.155166 -0.08111,0.06732 -0.182065,0.08781 -0.224337,0.04554 -0.04227,-0.04227 -0.177721,-0.03439 -0.300998,0.01752 -0.123278,0.05191 -0.392892,0.114401 -0.599142,0.138872 -0.20625,0.02447 -0.515625,0.0809 -0.6875,0.1254 -0.372623,0.09647 -0.462485,0.1104 -2.25,0.348756 -0.309375,0.04125 -0.942187,0.07263 -1.40625,0.06972 -0.464062,-0.0029 -0.843821,0.03893 -0.843908,0.09299 -8.7e-5,0.05405 -9.267274,0.106308 -20.593751,0.11613 L 4.6860348,85.626182 Z M 29.373535,59.386563 c 0.378125,-0.01165 0.74375,-0.05405 0.8125,-0.09422 0.06875,-0.04017 0.153125,-0.07455 0.1875,-0.0764 0.206879,-0.01112 0.875,-0.362752 0.875,-0.46051 0,-0.06447 0.05665,-0.0822 0.125883,-0.03941 0.06924,0.04279 0.159628,-0.01014 0.200873,-0.117624 0.04124,-0.107482 0.149265,-0.195422 0.240045,-0.195422 0.09078,0 0.281024,-0.154688 0.422767,-0.34375 0.141741,-0.189063 0.314573,-0.411689 0.384072,-0.494724 0.0695,-0.08304 0.12636,-0.209599 0.12636,-0.28125 0,-0.07165 0.04722,-0.130276 0.104935,-0.130276 0.163741,0 0.408644,-0.62661 0.309004,-0.790618 -0.08337,-0.137231 -1.306069,-1.714717 -1.760916,-2.271882 -0.112249,-0.1375 -0.181583,-0.25 -0.154074,-0.25 0.08785,0 -0.669345,-1.496265 -0.805559,-1.591837 -0.07199,-0.05051 -0.0912,-0.0927 -0.04269,-0.09375 0.07723,-0.0017 -0.126616,-0.709086 -0.360742,-1.251913 -0.04448,-0.103125 -0.08849,-0.215625 -0.09781,-0.25 -0.12236,-0.451437 -0.260982,-0.637513 -0.524133,-0.70356 -0.445483,-0.111809 -1.766894,0.02627 -1.985188,0.207435 -0.100556,0.08346 -0.18283,0.11849 -0.18283,0.07785 0,-0.04063 -0.351562,0.128751 -0.78125,0.376412 -0.837594,0.482768 -1.62007,1.148144 -1.527104,1.298566 0.0313,0.05065 -0.0307,0.125718 -0.137787,0.16681 -0.107088,0.04109 -0.159694,0.131363 -0.116905,0.200599 0.04279,0.06923 0.01491,0.125883 -0.06195,0.125883 -0.07687,0 -0.10499,0.05625 -0.0625,0.125 0.04249,0.06875 0.0083,0.125 -0.07596,0.125 -0.08427,0 -0.116199,0.03701 -0.07096,0.08225 0.04524,0.04524 0.02936,0.145975 -0.03528,0.223862 -0.421251,0.507576 -0.380063,2.946506 0.06113,3.619855 0.101443,0.15482 0.146744,0.319188 0.100669,0.365263 -0.04607,0.04607 -0.01815,0.08377 0.06206,0.08377 0.08021,0 0.145834,0.05862 0.145834,0.130276 0,0.269845 0.709046,1.013771 1.375,1.442639 0.309375,0.199235 0.603826,0.419021 0.654336,0.488415 0.05051,0.06939 0.0927,0.07709 0.09375,0.01712 0.001,-0.05998 0.07223,-0.0507 0.158164,0.02062 0.08594,0.07132 0.184375,0.130829 0.21875,0.132236 0.06051,0.0025 0.23466,0.0548 0.625,0.187761 0.103125,0.03513 0.328125,0.04066 0.5,0.01229 0.171875,-0.02837 0.621875,-0.06111 1,-0.07276 z m 31.528789,0.01587 c 0.118959,-0.0084 0.249408,-0.06896 0.289888,-0.134454 0.04048,-0.0655 0.12564,-0.08692 0.189247,-0.04761 0.06361,0.03931 0.392525,-0.06759 0.730929,-0.237562 0.338404,-0.16997 0.6481,-0.276216 0.688214,-0.236103 0.04011,0.04011 0.07293,0.004 0.07293,-0.08028 0,-0.08427 0.05625,-0.118446 0.125,-0.07596 0.06875,0.04249 0.125,0.01876 0.125,-0.05274 0,-0.0715 0.140625,-0.16529 0.3125,-0.208429 0.171875,-0.04314 0.3125,-0.128584 0.3125,-0.189882 0,-0.0613 0.08438,-0.111448 0.1875,-0.111448 0.103125,0 0.1875,-0.05625 0.1875,-0.125 0,-0.06875 0.06559,-0.125 0.145763,-0.125 0.16926,0 0.32218,-0.126954 1.149732,-0.954505 0.827551,-0.827552 0.954505,-0.980472 0.954505,-1.149732 0,-0.08017 0.05625,-0.145763 0.125,-0.145763 0.06875,0 0.125,-0.08438 0.125,-0.1875 0,-0.103125 0.04412,-0.1875 0.09803,-0.1875 0.08632,0 0.814387,-1.409652 0.85509,-1.655589 0.0086,-0.05193 0.02969,-0.122536 0.04687,-0.156911 0.01719,-0.03438 0.04531,-0.11875 0.0625,-0.1875 0.01719,-0.06875 0.04531,-0.153125 0.0625,-0.1875 0.04722,-0.09445 0.0638,-0.175413 0.240092,-1.172904 0.157698,-0.89226 0.130626,-2.93939 -0.04813,-3.639596 -0.04388,-0.171875 -0.108354,-0.451378 -0.143277,-0.621118 -0.03492,-0.16974 -0.123304,-0.380677 -0.196398,-0.46875 -0.0731,-0.08807 -0.09591,-0.160132 -0.0507,-0.160132 0.04521,0 0.01262,-0.126563 -0.07243,-0.28125 -0.08505,-0.154688 -0.168342,-0.364604 -0.185092,-0.466482 -0.01675,-0.101876 -0.09012,-0.205118 -0.16304,-0.229426 -0.07292,-0.02431 -0.100791,-0.09564 -0.06193,-0.158519 0.03886,-0.06288 0.01718,-0.114323 -0.04817,-0.114323 -0.06535,0 -0.150883,-0.126563 -0.190063,-0.28125 -0.08734,-0.344808 -0.54695,-0.918567 -1.469804,-1.834824 -0.829128,-0.823201 -1.055693,-1.008926 -1.230785,-1.008926 -0.07165,0 -0.130276,-0.05625 -0.130276,-0.125 0,-0.06875 -0.08438,-0.125 -0.1875,-0.125 -0.103125,0 -0.1875,-0.04664 -0.1875,-0.103633 0,-0.09338 -1.142743,-0.686391 -1.3961,-0.724492 -0.05714,-0.0086 -0.132025,-0.02969 -0.1664,-0.04687 -0.03438,-0.01719 -0.11875,-0.04531 -0.1875,-0.0625 -0.06875,-0.01719 -0.153125,-0.04531 -0.1875,-0.0625 -0.03438,-0.01719 -0.104688,-0.03914 -0.15625,-0.04879 -0.05156,-0.0097 -0.157039,-0.05784 -0.234392,-0.107106 -0.422973,-0.269367 -4.188149,-0.361232 -4.609359,-0.112462 -0.06875,0.0406 -0.209375,0.09154 -0.3125,0.113178 -0.405757,0.08516 -0.852551,0.25413 -1.28125,0.484551 -0.189062,0.101619 -0.34375,0.149439 -0.34375,0.106266 0,-0.04317 -0.08796,0.0095 -0.19547,0.116974 -0.113732,0.113733 -0.154446,0.261208 -0.09737,0.352679 0.05396,0.08646 0.11542,0.269709 0.136585,0.407209 0.02117,0.1375 0.08994,0.267696 0.152844,0.289326 0.0629,0.02163 0.08338,0.120066 0.04551,0.21875 -0.03787,0.09868 -0.0033,0.179424 0.0769,0.179424 0.08016,0 0.116921,0.04665 0.08169,0.103661 -0.03524,0.05701 0.02186,0.38045 0.126873,0.71875 0.105016,0.338299 0.211521,0.783839 0.236677,0.990089 0.0762,0.62476 0.08152,3.927792 0.0065,4.049148 -0.03851,0.06232 -0.06883,0.2455 -0.06736,0.407077 0.0036,0.394041 -0.0641,0.722387 -0.236605,1.148015 -0.07897,0.194831 -0.111729,0.405768 -0.07281,0.46875 0.03892,0.06298 0.0052,0.11451 -0.07498,0.11451 -0.08016,0 -0.114767,0.08074 -0.0769,0.179423 0.03787,0.09868 0.02983,0.197122 -0.01788,0.21875 -0.152729,0.06925 -0.531051,0.989659 -0.456421,1.110412 0.03957,0.06403 0.0091,0.116415 -0.06781,0.116415 -0.07686,0 -0.10499,0.05625 -0.0625,0.125 0.04249,0.06875 0.01437,0.125 -0.0625,0.125 -0.07686,0 -0.10499,0.05625 -0.0625,0.125 0.04249,0.06875 0.01913,0.125 -0.05191,0.125 -0.07104,0 -0.216431,0.16875 -0.323088,0.375 -0.106656,0.20625 -0.1536,0.375 -0.104318,0.375 0.04928,0 -0.01959,0.08259 -0.15304,0.183525 -0.133453,0.100937 -0.20693,0.185312 -0.163283,0.1875 0.04365,0.0022 -0.110267,0.210998 -0.342031,0.464026 -0.231765,0.253029 -0.395948,0.485496 -0.364849,0.516595 0.0311,0.0311 -0.08686,0.169344 -0.262132,0.307212 -0.541918,0.426273 -0.575785,0.722387 -0.13552,1.184892 0.212693,0.223437 0.454037,0.40625 0.536321,0.40625 0.08228,0 0.181982,0.08438 0.221556,0.1875 0.03957,0.103125 0.15809,0.1875 0.263374,0.1875 0.105282,0 0.191422,0.05625 0.191422,0.125 0,0.06875 0.07969,0.125 0.177084,0.125 0.0974,0 0.195833,0.04219 0.21875,0.09375 0.03621,0.08148 1.431809,0.825307 1.603334,0.854546 0.03483,0.0059 0.157377,0.05246 0.272321,0.103378 0.114944,0.05092 0.283694,0.103893 0.375,0.117718 0.09131,0.01383 0.236324,0.06906 0.322261,0.12275 0.08594,0.05369 0.208614,0.06525 0.272613,0.0257 0.064,-0.03956 0.151544,-0.01499 0.194542,0.05458 0.06331,0.102444 2.661724,0.10374 4.092884,0.002 z m -40.403789,-0.21352 c 0.829674,-0.09683 0.672044,-0.06088 1.493848,-0.340706 1.003042,-0.341542 1.937397,-0.853991 1.980697,-1.086317 0.02087,-0.111967 -0.03518,-0.280717 -0.124551,-0.375 -0.08937,-0.09428 -0.181709,-0.283922 -0.205194,-0.421422 -0.02349,-0.1375 -0.09064,-0.267697 -0.149229,-0.289327 -0.05859,-0.02163 -0.07554,-0.120066 -0.03768,-0.21875 0.03787,-0.09868 0.01243,-0.179423 -0.05653,-0.179423 -0.07815,0 -0.121506,-0.635467 -0.115101,-1.687047 l 0.01028,-1.687046 -0.965634,-0.956287 c -1.18772,-1.176225 -2.084253,-2.517767 -2.524245,-3.777198 -0.183486,-0.525207 -0.364604,-1.039297 -0.402484,-1.142422 -0.03788,-0.103125 -0.05715,-0.23808 -0.04281,-0.2999 0.01433,-0.06182 -0.0099,-0.202445 -0.05391,-0.3125 -0.07171,-0.179434 -0.204488,-1.280294 -0.212588,-1.7626 -0.0076,-0.455642 0.133213,-1.644753 0.203123,-1.714662 0.04236,-0.04235 0.07701,-0.267915 0.07701,-0.501248 v -0.424244 l -0.90625,0.07502 c -0.498438,0.04126 -1.00358,0.07637 -1.122539,0.07803 -0.118959,0.0017 -0.249407,0.0566 -0.289887,0.122096 -0.04048,0.0655 -0.123485,0.08825 -0.184459,0.05057 -0.06097,-0.03768 -0.311233,0.01521 -0.556131,0.117531 -0.2449,0.102325 -0.472965,0.18735 -0.506813,0.188944 -0.306165,0.01441 -2.511751,1.540833 -2.996421,2.07373 -0.705124,0.775286 -1.078584,1.274509 -1.14306,1.527983 -0.03935,0.154687 -0.117904,0.28125 -0.174568,0.28125 -0.08447,0 -0.260978,0.360918 -0.305657,0.625 -0.0058,0.03437 -0.08087,0.189062 -0.166792,0.34375 -0.08592,0.154687 -0.119227,0.28125 -0.07402,0.28125 0.04521,0 0.01218,0.08438 -0.07341,0.1875 -0.08559,0.103125 -0.113711,0.1875 -0.0625,0.1875 0.05121,0 0.03764,0.07031 -0.03016,0.15625 -0.0678,0.08594 -0.129296,0.240625 -0.136665,0.34375 -0.0074,0.103125 -0.0443,0.35625 -0.08207,0.5625 -0.07115,0.38852 -0.08251,2.388697 -0.01669,2.9375 0.07789,0.649361 0.357401,1.625 0.46555,1.625 0.06189,0 0.101387,0.04219 0.08777,0.09375 -0.0488,0.184713 0.191741,0.73006 0.613968,1.392 0.466446,0.731262 2.344793,2.63925 2.598249,2.63925 0.04015,0 0.191669,0.110555 0.336706,0.245677 0.145037,0.135123 0.311435,0.216178 0.369773,0.180123 0.05834,-0.03605 0.10607,-0.0027 0.10607,0.0742 0,0.07686 0.05625,0.10499 0.125,0.0625 0.06875,-0.04249 0.125,-0.02378 0.125,0.04157 0,0.101425 0.140802,0.162498 0.78125,0.338863 0.05156,0.0142 0.107812,0.03715 0.125,0.051 0.01719,0.01385 0.115625,0.04572 0.21875,0.07082 0.103125,0.0251 0.328125,0.07993 0.5,0.121844 0.171875,0.04192 0.451857,0.104877 0.622184,0.139909 0.170326,0.03503 0.336648,0.09066 0.369605,0.123613 0.06062,0.06062 1.248066,-0.01711 2.508211,-0.164177 z m 24,0.08147 c 0.438884,-0.04628 1.324573,-0.287943 1.46875,-0.40076 0.08594,-0.06725 0.15625,-0.08037 0.15625,-0.02915 0,0.05121 0.08438,0.02309 0.1875,-0.0625 0.103125,-0.08559 0.1875,-0.113711 0.1875,-0.0625 0,0.05121 0.08438,0.02309 0.1875,-0.0625 0.103125,-0.08559 0.1875,-0.12235 0.1875,-0.0817 0,0.09345 2.001793,-0.94131 2.53696,-1.311404 0.59789,-0.413468 0.701262,-0.504381 1.63341,-1.436528 1.080949,-1.08095 1.20463,-1.223275 1.20463,-1.386233 0,-0.07282 0.07339,-0.16055 0.163077,-0.194969 0.08969,-0.03442 0.30063,-0.335748 0.46875,-0.669623 0.168121,-0.333875 0.361923,-0.648372 0.430673,-0.698882 0.06875,-0.05051 0.08044,-0.0927 0.02598,-0.09375 -0.05446,-0.001 0.04932,-0.255038 0.230627,-0.564413 0.181305,-0.309375 0.289289,-0.5625 0.239964,-0.5625 -0.04933,0 -0.01966,-0.08438 0.06593,-0.1875 0.08559,-0.103125 0.113712,-0.1875 0.0625,-0.1875 -0.05121,0 -0.02309,-0.08438 0.0625,-0.1875 0.08559,-0.103125 0.113712,-0.1875 0.0625,-0.1875 -0.05121,0 -0.03773,-0.07031 0.02996,-0.15625 0.302666,-0.384268 0.449434,-1.568503 0.437644,-3.53125 -0.0107,-1.781848 -0.03421,-2.209928 -0.130101,-2.369713 -0.03952,-0.06584 -0.08643,-0.256524 -0.104262,-0.423737 -0.01783,-0.167214 -0.07274,-0.394594 -0.122031,-0.505288 -0.04929,-0.110695 -0.101506,-0.24345 -0.116037,-0.295012 -0.01453,-0.05156 -0.04048,-0.121875 -0.05767,-0.15625 -0.01719,-0.03438 -0.04314,-0.104688 -0.05767,-0.15625 -0.105029,-0.372679 -0.940226,-2.16168 -1.065005,-2.28125 -0.03587,-0.03438 -0.14495,-0.217188 -0.242395,-0.40625 -0.09745,-0.189063 -0.223919,-0.34375 -0.281051,-0.34375 -0.05713,0 -0.103878,-0.06559 -0.103878,-0.145764 0,-0.179691 -0.120613,-0.320343 -1.202253,-1.401983 -1.068383,-1.068382 -1.223004,-1.202254 -1.388609,-1.202254 -0.07282,0 -0.166136,-0.08794 -0.207381,-0.195422 -0.04124,-0.107483 -0.131638,-0.160413 -0.200874,-0.117624 -0.06923,0.04279 -0.125883,0.01823 -0.125883,-0.05458 0,-0.07281 -0.07969,-0.132378 -0.177083,-0.132378 -0.09739,0 -0.195833,-0.04922 -0.21875,-0.109385 -0.04803,-0.126097 -1.604167,-0.928366 -1.604167,-0.827032 0,0.03695 -0.140625,-0.02496 -0.3125,-0.137578 -0.171875,-0.112616 -0.3125,-0.166843 -0.3125,-0.120503 0,0.04634 -0.07031,0.04033 -0.15625,-0.01336 -0.08594,-0.05369 -0.2125,-0.109969 -0.28125,-0.12507 -0.146883,-0.03226 -0.572445,-0.137459 -0.96875,-0.239464 -0.928541,-0.238999 -3.520568,-0.314656 -4.53125,-0.132262 -0.275,0.04963 -0.59733,0.09143 -0.716289,0.0929 -0.118958,0.0015 -0.249407,0.05625 -0.289887,0.121749 -0.04048,0.0655 -0.125961,0.08672 -0.189961,0.04717 -0.064,-0.03955 -0.186675,-0.02804 -0.272613,0.02559 -0.08594,0.05363 -0.266856,0.114705 -0.402042,0.13572 -0.135187,0.02102 -0.374249,0.122376 -0.53125,0.225247 -0.157002,0.102873 -0.285458,0.156808 -0.285458,0.119859 0,-0.101334 -1.556134,0.700935 -1.604166,0.827032 -0.02292,0.06016 -0.121355,0.109385 -0.21875,0.109385 -0.0974,0 -0.177084,0.05625 -0.177084,0.125 0,0.06875 -0.08437,0.125 -0.1875,0.125 -0.103125,0 -0.1875,0.05246 -0.1875,0.116577 0,0.06412 -0.101976,0.148942 -0.226615,0.188501 -0.291105,0.09239 -1.8974,1.71281 -2.423614,2.444923 -0.222367,0.309375 -0.434222,0.590625 -0.470787,0.625 -0.200024,0.188038 -1.165256,2 -1.065401,2 0.03695,0 -0.02496,0.140625 -0.137578,0.3125 -0.112616,0.171875 -0.166844,0.3125 -0.120504,0.3125 0.04634,0 0.04033,0.07031 -0.01336,0.15625 -0.05369,0.08594 -0.113257,0.226562 -0.132378,0.3125 -0.09067,0.407488 -0.142787,0.59375 -0.166154,0.59375 -0.01404,0 -0.04535,0.1125 -0.0696,0.25 -0.02424,0.1375 -0.08341,0.475 -0.13149,0.75 -0.07947,0.45454 -0.105425,2.798158 -0.04293,3.875348 0.01397,0.240817 0.07357,0.467618 0.132445,0.504003 0.05887,0.03638 0.07754,0.143039 0.04148,0.237007 -0.03606,0.09397 -0.0046,0.208555 0.07,0.254635 0.07456,0.04608 0.101675,0.138608 0.06026,0.205619 -0.04142,0.06701 -0.0073,0.20375 0.07577,0.303863 0.08309,0.100113 0.109167,0.182025 0.05796,0.182025 -0.05121,0 -0.02309,0.08438 0.0625,0.1875 0.08559,0.103125 0.11862,0.1875 0.07341,0.1875 -0.04521,0 -0.0119,0.126562 0.07401,0.28125 0.08592,0.154687 0.159571,0.309375 0.16367,0.34375 0.02659,0.22305 1.116955,2.191236 1.350705,2.438125 0.08289,0.08754 0.262903,0.320093 0.400037,0.516773 0.137135,0.196682 0.587135,0.687388 1,1.09046 1.006725,0.982845 1.122596,1.079642 1.292401,1.079642 0.08017,0 0.145764,0.04675 0.145764,0.103877 0,0.05713 0.154688,0.183695 0.34375,0.28125 0.189063,0.09755 0.4,0.219533 0.46875,0.271063 0.277013,0.207627 1.8125,0.961649 1.8125,0.890052 0,-0.04227 0.08438,-0.0068 0.1875,0.07876 0.103125,0.08559 0.1875,0.113711 0.1875,0.0625 0,-0.05121 0.08438,-0.02309 0.1875,0.0625 0.103125,0.08559 0.1875,0.113711 0.1875,0.0625 0,-0.05121 0.07031,-0.03647 0.15625,0.03276 0.168985,0.136131 0.621901,0.248485 1.398014,0.346804 0.27047,0.03426 0.516231,0.08676 0.546135,0.116668 0.04644,0.04644 2.978425,-0.0087 3.524601,-0.06632 z m 26.659959,-0.454165 c 0.0839,-0.05331 0.180667,-0.103847 0.215042,-0.11231 0.319072,-0.07857 1.125,-0.486832 1.125,-0.569901 0,-0.05832 0.07425,-0.106038 0.164997,-0.106038 0.206965,0 1.210003,-1.103733 1.210003,-1.331475 0,-0.09269 0.0516,-0.168525 0.114661,-0.168525 0.251247,0 0.520572,-1.083613 0.528156,-2.125 0.0042,-0.584375 -0.0136,-1.175 -0.03969,-1.3125 -0.0985,-0.51922 -0.377176,-1.1875 -0.495199,-1.1875 -0.06748,0 -0.09404,-0.04635 -0.05902,-0.103004 0.08895,-0.143931 -1.028763,-1.396996 -1.2461,-1.396996 -0.09779,0 -0.177806,-0.05625 -0.177806,-0.125 0,-0.06875 -0.08438,-0.125 -0.1875,-0.125 -0.103125,0 -0.1875,-0.05957 -0.1875,-0.132378 0,-0.07281 -0.05625,-0.09761 -0.125,-0.05512 -0.06875,0.04249 -0.125,0.0083 -0.125,-0.07596 0,-0.08427 -0.03701,-0.116198 -0.08225,-0.07096 -0.04524,0.04524 -0.145975,0.02936 -0.223861,-0.03528 -0.365585,-0.303408 -2.27731,-0.394436 -2.45773,-0.117026 -0.06232,0.09582 -0.11603,0.455473 -0.119354,0.799223 -0.009,0.933808 -0.06764,1.506823 -0.171284,1.674518 -0.05097,0.08247 -0.06273,0.228 -0.02612,0.323392 0.03661,0.09539 0.0174,0.191135 -0.04269,0.212763 -0.06008,0.02163 -0.127236,0.208077 -0.149227,0.414327 -0.02199,0.20625 -0.06811,0.403125 -0.102485,0.4375 -0.126812,0.126811 -0.892378,1.81635 -0.872832,1.926263 0.01113,0.06257 -0.07037,0.164464 -0.181097,0.226433 -0.110731,0.06197 -0.168701,0.165461 -0.128824,0.229986 0.03988,0.06453 0.01224,0.117318 -0.06142,0.117318 -0.07366,0 -0.334082,0.312885 -0.578709,0.695301 -0.356739,0.557671 -0.415259,0.730871 -0.295643,0.875 0.08203,0.09883 0.220607,0.179699 0.307959,0.179699 0.08735,0 0.191198,0.08438 0.230771,0.1875 0.03957,0.103125 0.15809,0.1875 0.263374,0.1875 0.105283,0 0.191423,0.04908 0.191423,0.109063 0,0.05999 0.261571,0.222292 0.581268,0.360681 0.437397,0.189337 0.886937,0.256418 1.81621,0.271021 0.679217,0.01067 1.303583,-0.02421 1.38748,-0.07752 z M 24.8784,50.78154 c 0.660101,-0.658172 1.226334,-1.105707 1.302546,-1.029495 0.03717,0.03717 0.06759,0.01393 0.06759,-0.05164 0,-0.06558 0.12573,-0.128703 0.279399,-0.140278 0.153669,-0.01158 0.297929,-0.07664 0.320576,-0.144579 0.02265,-0.06794 0.121918,-0.09255 0.220601,-0.05468 0.09868,0.03787 0.179424,0.0033 0.179424,-0.0769 0,-0.08016 0.05894,-0.109321 0.130986,-0.0648 0.07204,0.04452 0.226729,0.04081 0.34375,-0.0083 0.11702,-0.04906 0.478927,-0.07806 0.804237,-0.06443 1.102757,0.0462 1.068698,0.105274 1.07707,-1.868131 0.0074,-1.742975 0.203613,-2.972599 0.693222,-4.344131 0.104305,-0.292188 0.149953,-0.532112 0.10144,-0.533164 -0.04851,-0.001 -0.0293,-0.04324 0.04269,-0.09375 0.123514,-0.08666 0.82626,-1.449806 0.817239,-1.585231 -0.0023,-0.03473 0.13633,-0.214797 0.308099,-0.400138 0.417676,-0.45068 0.528213,-0.913936 0.264147,-1.107026 -0.112194,-0.08204 -0.168687,-0.184463 -0.125541,-0.227609 0.04315,-0.04315 -0.01365,-0.113791 -0.126225,-0.156989 -0.11257,-0.0432 -0.178816,-0.120377 -0.147214,-0.171511 0.0316,-0.05113 -0.04971,-0.208002 -0.18069,-0.348596 -0.130982,-0.140593 -0.204037,-0.289737 -0.162345,-0.33143 0.04169,-0.04169 0.0069,-0.07581 -0.0774,-0.07581 -0.08427,0 -0.118446,-0.05625 -0.07596,-0.125 0.04249,-0.06875 0.0083,-0.125 -0.07596,-0.125 -0.08427,0 -0.11895,-0.03426 -0.07708,-0.07614 0.06587,-0.06587 -0.0747,-0.5091 -0.471406,-1.486365 -0.05582,-0.1375 -0.08991,-0.344887 -0.07575,-0.460862 0.06279,-0.51452 -0.919194,-0.579224 -2.86231,-0.1886 -0.722922,0.14533 -2.531107,0.861704 -2.75,1.089506 -0.03438,0.03577 -0.217187,0.133006 -0.40625,0.216071 -0.189062,0.08306 -0.34375,0.208482 -0.34375,0.278705 0,0.07023 -0.06086,0.127685 -0.135236,0.127685 -0.175919,0 -2.114764,1.948528 -2.114764,2.125326 0,0.07432 -0.110555,0.253795 -0.245677,0.398832 -0.135123,0.145036 -0.216178,0.311435 -0.180123,0.369773 0.03605,0.05834 0.0098,0.10607 -0.0584,0.10607 -0.101201,0 -0.27813,0.338596 -0.326585,0.625 -0.0058,0.03437 -0.08087,0.189062 -0.166793,0.34375 -0.08592,0.154687 -0.119226,0.28125 -0.07401,0.28125 0.04521,0 0.01217,0.08438 -0.07341,0.1875 -0.08559,0.103125 -0.113711,0.1875 -0.0625,0.1875 0.05121,0 0.03181,0.07386 -0.04311,0.164132 -0.07492,0.09027 -0.175035,0.385586 -0.222478,0.65625 -0.115687,0.659984 -0.116328,3.397304 -8.75e-4,3.867118 0.05067,0.20625 0.106303,0.43125 0.123628,0.5 0.221548,0.879156 0.948968,2.5625 1.107328,2.5625 0.05392,0 0.09803,0.08438 0.09803,0.1875 0,0.103125 0.05625,0.1875 0.125,0.1875 0.06875,0 0.125,0.06648 0.125,0.147741 0,0.08126 0.435654,0.584036 0.968119,1.117286 l 0.96812,0.969546 0.37563,-0.457463 c 0.206597,-0.251605 0.574695,-0.655947 0.817996,-0.898538 z m 29.245135,-9.76095 c 0,-0.07281 0.05625,-0.09761 0.125,-0.05512 0.06875,0.04249 0.125,0.01769 0.125,-0.05512 0,-0.07281 0.04219,-0.118387 0.09375,-0.10129 0.104178,0.03455 1.55756,-0.431024 1.65625,-0.530555 0.03438,-0.03467 0.2875,-0.08283 0.5625,-0.10703 0.275,-0.0242 0.556217,-0.07838 0.624925,-0.120394 0.06871,-0.04202 0.27186,-0.06099 0.451448,-0.04215 0.305927,0.03209 0.324356,0.0042 0.292186,-0.442105 -0.07918,-1.098489 -1.217615,-3.964797 -1.638946,-4.126477 -0.09191,-0.03527 -0.167113,-0.134325 -0.167113,-0.220121 0,-0.0858 -0.30354,-0.431341 -0.674535,-0.767876 -0.892646,-0.809736 -1.04088,-0.924383 -1.195188,-0.924383 -0.07165,0 -0.130277,-0.05625 -0.130277,-0.125 0,-0.06875 -0.08437,-0.125 -0.1875,-0.125 -0.103125,0 -0.1875,-0.04771 -0.1875,-0.106016 0,-0.08702 -0.886205,-0.555011 -1.12095,-0.591957 -0.0366,-0.0058 -0.222706,-0.07524 -0.413565,-0.154398 -0.190857,-0.07916 -0.500232,-0.172262 -0.6875,-0.2069 -0.318392,-0.05889 -0.547487,-0.08628 -2.144281,-0.25638 l -0.616296,-0.06565 0.05858,0.4094 c 0.112154,0.783873 0.02478,2.73255 -0.140589,3.135514 -0.0666,0.162281 0.0088,0.32306 0.267157,0.569534 0.455532,0.434615 1.172448,0.936636 1.172448,0.821008 0,-0.04833 0.118913,0.0633 0.26425,0.24807 0.145339,0.184768 0.289095,0.311097 0.31946,0.280733 0.03036,-0.03037 0.431764,0.351725 0.891999,0.849089 1.109201,1.198682 1.631235,1.817071 1.538045,1.821929 -0.04194,0.0022 0.0137,0.0725 0.12365,0.15625 0.109948,0.08375 0.203184,0.1804 0.207193,0.214775 0.04716,0.404438 0.530403,0.967152 0.530403,0.617622 z m -20.43635,-3.184671 c 0.594251,-0.518127 1.301158,-1.088102 1.570903,-1.26661 0.269746,-0.17851 0.490447,-0.382713 0.490447,-0.453785 0,-0.07107 0.03489,-0.09433 0.07754,-0.05168 0.09002,0.09002 1.589446,-0.638202 1.651886,-0.802267 0.02306,-0.06059 0.08463,-0.08377 0.136825,-0.05151 0.05219,0.03226 0.372735,-0.04692 0.712314,-0.175949 1.138906,-0.43275 2.427094,-0.633267 4.116225,-0.640726 0.897759,-0.004 1.769634,0.0254 1.9375,0.06526 0.167865,0.03986 0.502085,0.09609 0.74271,0.124959 0.240625,0.02887 0.465625,0.06486 0.5,0.07997 0.03438,0.01511 0.11875,0.03841 0.1875,0.05177 0.06875,0.01336 0.209375,0.06011 0.3125,0.103876 0.574494,0.243845 1.236962,0.430125 1.301199,0.365887 0.04059,-0.04059 0.0738,-0.02015 0.0738,0.04543 0,0.212181 0.48651,0.16326 0.54222,-0.05452 0.05668,-0.221585 0.124448,-1.118813 0.124474,-1.648043 2.3e-5,-0.483612 -0.221992,-2.1875 -0.28503,-2.1875 -0.01388,0 -0.05038,-0.136726 -0.08111,-0.303835 -0.07861,-0.427483 -1.009466,-2.311558 -1.338749,-2.709665 -0.734907,-0.888508 -1.386457,-1.549 -1.528031,-1.549 -0.08636,0 -0.185777,-0.07494 -0.220924,-0.166526 -0.0733,-0.191015 -2.243128,-1.29705 -2.712845,-1.382829 -0.171875,-0.03139 -0.3125,-0.06843 -0.3125,-0.08231 0,-0.166669 -3.681745,-0.278724 -3.875464,-0.117952 -0.08115,0.06734 -0.180808,0.08918 -0.221471,0.04851 -0.04066,-0.04066 -0.147987,-0.02774 -0.238499,0.02872 -0.09051,0.05646 -0.276246,0.120008 -0.412743,0.141223 -0.31343,0.04871 -2.11259,0.926635 -2.168489,1.058139 -0.02292,0.05391 -0.12312,0.09802 -0.222674,0.09802 -0.09955,0 -0.213384,0.08438 -0.252956,0.1875 -0.03957,0.103125 -0.134314,0.1875 -0.210534,0.1875 -0.186991,0 -1.33467,1.139947 -1.33467,1.325678 0,0.08117 -0.08437,0.179952 -0.1875,0.219526 -0.103125,0.03957 -0.1875,0.15809 -0.1875,0.263374 0,0.105282 -0.05518,0.191422 -0.122619,0.191422 -0.06744,0 -0.157912,0.140625 -0.201051,0.3125 -0.04314,0.171875 -0.131904,0.3125 -0.197259,0.3125 -0.06535,0 -0.08406,0.05625 -0.04157,0.125 0.04249,0.06875 0.0083,0.125 -0.07596,0.125 -0.08427,0 -0.116456,0.03675 -0.07153,0.08168 0.04492,0.04492 -0.02797,0.259091 -0.161986,0.475931 -0.418593,0.677297 -0.611813,1.713361 -0.611943,3.2813 -1.2e-4,1.432367 0.142793,2.436024 0.392265,2.754842 0.06725,0.08594 0.08527,0.15625 0.04006,0.15625 -0.04521,0 -0.01203,0.126563 0.07375,0.28125 0.08578,0.154688 0.144004,0.323438 0.129397,0.375 -0.01461,0.05156 0.03301,0.09375 0.105822,0.09375 0.07281,0 0.100415,0.05172 0.06135,0.114923 -0.03907,0.06321 0.0064,0.192394 0.101131,0.28708 0.09469,0.09469 0.211494,0.296096 0.259573,0.447577 0.04808,0.151482 0.133313,0.27542 0.189412,0.27542 0.0561,0 0.131416,0.112501 0.167374,0.250001 0.03596,0.1375 0.09499,0.25 0.131176,0.25 0.03619,0 0.552005,-0.423922 1.146255,-0.942049 z m -8.707302,-2.44518 c 0.216508,-0.07548 0.393652,-0.187975 0.393652,-0.25 0,-0.06202 0.04219,-0.101394 0.09375,-0.08749 0.184763,0.04983 1.40625,-0.324797 1.40625,-0.431292 0,-0.05981 0.05894,-0.07232 0.130986,-0.02779 0.07204,0.04452 0.226729,0.04109 0.34375,-0.0076 0.290483,-0.120931 0.810592,-0.17087 1.784147,-0.171307 l 0.821381,-3.75e-4 -0.0089,-0.892916 c -0.0049,-0.491104 0.03696,-0.921234 0.09299,-0.955845 0.05603,-0.03461 0.08623,-0.212073 0.06711,-0.394359 -0.01912,-0.182286 0.01034,-0.404401 0.06546,-0.49359 0.05512,-0.08919 0.07027,-0.240208 0.03367,-0.335599 -0.03661,-0.09539 -0.02719,-0.191135 0.02093,-0.212764 0.186971,-0.08404 0.51353,-1.391797 0.397216,-1.590707 -0.06388,-0.10924 -0.118716,-0.142369 -0.121859,-0.07362 -0.0031,0.06875 -0.05267,0.05095 -0.110065,-0.03956 -0.05739,-0.09051 -0.183093,-0.176465 -0.279336,-0.191015 -0.09624,-0.01455 -0.255766,-0.07685 -0.354497,-0.138444 -0.09873,-0.06159 -0.726628,-0.12701 -1.395328,-0.145372 -1.158574,-0.03181 -1.253366,-0.01415 -2.013367,0.375049 -1.005688,0.515021 -1.864755,1.338721 -2.166017,2.076842 -0.04209,0.103125 -0.136986,0.298489 -0.21088,0.434143 -0.19165,0.351823 -0.257031,2.56101 -0.08203,2.771868 0.07714,0.09294 0.101917,0.168989 0.05507,0.168989 -0.04685,0 -0.04054,0.07031 0.01403,0.15625 0.09758,0.153676 0.118842,0.220164 0.149916,0.46875 0.02048,0.163806 0.381522,0.158744 0.871972,-0.01223 z"
       id="path4675"
       inkscape:connector-curvature="0"
       transform="translate(0,4)" />
    <path
       style="opacity:0.5;fill:#999999;fill-opacity:0.39215687;stroke-width:0.125"
       d="m 24.102409,35.062915 c -0.330376,-0.738137 -0.297815,-2.670642 0.05798,-3.441293 0.410636,-0.889427 1.410189,-1.877091 2.306995,-2.279554 0.700616,-0.314418 0.858803,-0.3375 1.965297,-0.286774 1.213897,0.05565 2.140851,0.343045 2.140851,0.663756 0,0.07963 -0.107098,0.456065 -0.237995,0.836524 -0.279907,0.813565 -0.512005,2.206097 -0.512005,3.071911 v 0.614129 l -1.222413,0.06736 c -1.192135,0.06569 -2.429673,0.394861 -3.813671,1.014394 l -0.473583,0.211995 z"
       id="path4696"
       inkscape:connector-curvature="0"
       transform="translate(0,4)" />
    <path
       style="opacity:0.5;fill:#999999;fill-opacity:0.39215687;stroke-width:0.125"
       d="m 32.220777,38.060992 c -0.932419,-1.457053 -1.212222,-2.543212 -1.199946,-4.658025 0.0086,-1.484099 0.04898,-1.798012 0.334926,-2.604365 0.476252,-1.34303 1.031719,-2.20354 2.156828,-3.34129 0.793333,-0.802245 1.222115,-1.120934 2.0625,-1.532934 1.56392,-0.766716 2.358192,-0.930053 4.23609,-0.871128 1.302707,0.04088 1.733298,0.106238 2.491686,0.378219 1.344637,0.482228 2.210854,1.040502 3.291332,2.121251 1.716785,1.717217 2.599125,4.072575 2.440841,6.5157 -0.03962,0.611458 -0.09832,1.138032 -0.13045,1.170165 -0.03213,0.03213 -0.555701,-0.110898 -1.163485,-0.317847 -1.921255,-0.654179 -3.754055,-0.864957 -5.599287,-0.643936 -2.981594,0.357136 -5.525986,1.536505 -7.661908,3.551424 l -0.87803,0.82829 z"
       id="path4698"
       inkscape:connector-curvature="0"
       transform="translate(0,4)" />
    <path
       style="opacity:0.5;fill:#999999;fill-opacity:0.39215687;stroke-width:0.125"
       d="m 40.698535,59.199364 c -2.678874,-0.507866 -4.70381,-1.525044 -6.545187,-3.28782 -1.099698,-1.052755 -1.818867,-2.063118 -2.515935,-3.534644 -0.826823,-1.745441 -1.10793,-3.043 -1.104648,-5.098932 0.0033,-2.062476 0.287559,-3.374041 1.105547,-5.100831 1.399149,-2.953632 3.885165,-5.194648 6.902414,-6.222173 1.496371,-0.509589 2.487392,-0.675318 4.032809,-0.67441 5.7479,0.0034 10.679294,4.12856 11.758799,9.836404 0.09211,0.487055 0.124405,1.488816 0.08662,2.6875 -0.05151,1.634285 -0.10965,2.064866 -0.401524,2.97351 -1.29381,4.027817 -4.400836,7.037253 -8.397165,8.133415 -0.747943,0.205155 -1.419372,0.279241 -2.796735,0.308596 -0.996875,0.02125 -1.953125,0.01197 -2.125,-0.02061 z"
       id="path4700"
       inkscape:connector-curvature="0"
       transform="translate(0,4)" />
    <path
       style="opacity:0.5;fill:#999999;fill-opacity:0.39215687;stroke-width:0.125"
       d="m 22.805671,51.184218 c -4.141712,-4.267658 -3.437921,-11.084794 1.4822,-14.357039 1.341484,-0.892186 3.97734,-1.657522 5.262728,-1.528064 0.39772,0.04006 0.422367,0.07659 0.786813,1.166352 0.378359,1.131365 0.763106,1.904537 1.321683,2.656005 l 0.301788,0.406004 -0.364556,0.531496 c -1.403451,2.046129 -2.147792,4.612416 -2.147792,7.405014 v 1.533402 l -1.09375,0.05687 c -0.874796,0.04549 -1.256402,0.132208 -1.90625,0.433208 -0.887698,0.411168 -1.958597,1.304248 -2.378363,1.983443 -0.146865,0.237632 -0.334512,0.432059 -0.416995,0.432059 -0.08248,0 -0.46386,-0.323438 -0.847506,-0.71875 z"
       id="path4702"
       inkscape:connector-curvature="0"
       transform="translate(0,4)" />
    <path
       style="opacity:0.5;fill:#999999;fill-opacity:0.39215687;stroke-width:0.125"
       d="m 17.386035,59.102193 c -2.050174,-0.474278 -3.484716,-1.340152 -4.857746,-2.932085 -0.707817,-0.820665 -1.487528,-2.360552 -1.778809,-3.513051 -0.310584,-1.228873 -0.198546,-3.519833 0.231484,-4.733415 1.13774,-3.210805 4.096984,-5.515399 7.370199,-5.73975 l 0.986341,-0.06761 -0.07992,0.36209 c -0.04396,0.19915 -0.106477,0.445147 -0.138929,0.546661 -0.03245,0.101514 -0.05812,0.832764 -0.05703,1.625 0.0041,2.992132 1.177554,5.651855 3.370573,7.639591 0.839265,0.760702 0.854361,0.785319 0.751886,1.226064 -0.256795,1.104473 -0.07906,2.575977 0.44286,3.666531 l 0.292426,0.611025 -0.516662,0.328581 c -0.284165,0.18072 -0.975728,0.487688 -1.536807,0.68215 -1.26432,0.438199 -3.291429,0.573139 -4.479856,0.298213 z"
       id="path4704"
       inkscape:connector-curvature="0"
       transform="translate(0,4)" />
    <path
       style="opacity:0.5;fill:#999999;fill-opacity:0.39215687;stroke-width:0.125"
       d="m 27.564704,59.240084 c -2.825472,-0.801575 -4.231637,-3.997636 -2.929656,-6.65879 0.39594,-0.809271 1.36295,-1.725348 2.249924,-2.131418 0.748025,-0.342458 2.260645,-0.533899 2.621747,-0.331816 0.125532,0.07025 0.366508,0.574559 0.560419,1.172827 0.548785,1.693157 1.319739,3.083761 2.464047,4.444517 0.298293,0.354715 0.54235,0.725246 0.54235,0.823401 0,0.301943 -0.951896,1.526894 -1.458241,1.876541 -1.207264,0.833654 -2.819569,1.153974 -4.05059,0.804738 z"
       id="path4706"
       inkscape:connector-curvature="0"
       transform="translate(0,4)" />
    <path
       style="opacity:0.5;fill:#999999;fill-opacity:0.39215687;stroke-width:0.125"
       d="m 56.073535,59.110012 c -1.157916,-0.345288 -2.256716,-0.925307 -3.197412,-1.687806 -1.061311,-0.860263 -1.065762,-0.878433 -0.406952,-1.661385 3.018811,-3.587657 3.93345,-8.551383 2.366743,-12.844261 l -0.362574,-0.993477 0.581348,-0.247924 c 1.098495,-0.468467 1.958694,-0.665438 3.211458,-0.735367 2.787952,-0.155622 5.13046,0.75623 7.141558,2.779948 0.867989,0.873436 1.115405,1.223073 1.644829,2.324404 0.804281,1.673102 0.957206,2.341435 0.954459,4.171324 -0.0025,1.702026 -0.19833,2.616546 -0.856296,4 -1.154833,2.428173 -3.460975,4.336396 -6.032704,4.991772 -1.211187,0.308658 -3.854157,0.257717 -5.044457,-0.09723 z"
       id="path4708"
       inkscape:connector-curvature="0"
       transform="translate(0,4)" />
    <path
       style="opacity:0.5;fill:#999999;fill-opacity:0.39215687;stroke-width:0.125"
       d="M 53.510504,40.171119 C 52.866322,39.120125 50.87632,37.112235 49.781762,36.408857 l -0.854273,-0.548967 0.09614,-0.884711 c 0.05288,-0.486591 0.08485,-1.357103 0.07104,-1.934471 l -0.02511,-1.04976 0.949954,0.0803 c 2.250487,0.190235 3.941745,0.963828 5.501993,2.516649 0.796242,0.792453 1.120625,1.230605 1.530007,2.066619 0.528636,1.079547 0.897014,2.270377 0.897014,2.899713 0,0.299788 -0.04983,0.348738 -0.355004,0.348738 -0.518574,0 -2.210638,0.454498 -2.946818,0.791532 l -0.63674,0.29151 z"
       id="path4710"
       inkscape:connector-curvature="0"
       transform="translate(0,4)" />
    <path
       style="opacity:0.5;fill:#999999;fill-opacity:0.39215687;stroke-width:0.125"
       d="m 68.573536,58.711717 c -0.623093,-0.172821 -1.805976,-0.860869 -2.107596,-1.225925 -0.08236,-0.09969 0.07443,-0.400488 0.499279,-0.957824 0.705187,-0.925107 1.494976,-2.476704 1.793873,-3.52419 0.111693,-0.391429 0.270323,-1.319554 0.352511,-2.0625 l 0.149433,-1.35081 0.913104,0.01746 c 1.179412,0.02256 2.255045,0.52122 3.063217,1.420103 0.956602,1.063971 1.147557,1.594364 1.147557,3.187433 0,1.204401 -0.0379,1.452544 -0.305475,2 -0.450091,0.920882 -1.578222,1.978058 -2.464794,2.309768 -0.953764,0.356849 -2.160151,0.430825 -3.041109,0.186481 z"
       id="path4712"
       inkscape:connector-curvature="0"
       transform="translate(0,4)" />
  </g>
</svg>
