<?xml version="1.0" encoding="UTF-8" standalone="no"?>
<!-- Created with Inkscape (http://www.inkscape.org/) -->

<svg
   xmlns:dc="http://purl.org/dc/elements/1.1/"
   xmlns:cc="http://creativecommons.org/ns#"
   xmlns:rdf="http://www.w3.org/1999/02/22-rdf-syntax-ns#"
   xmlns:svg="http://www.w3.org/2000/svg"
   xmlns="http://www.w3.org/2000/svg"
   xmlns:xlink="http://www.w3.org/1999/xlink"
   xmlns:sodipodi="http://sodipodi.sourceforge.net/DTD/sodipodi-0.dtd"
   xmlns:inkscape="http://www.inkscape.org/namespaces/inkscape"
   width="86"
   height="86"
   id="svg2"
   version="1.1"
   inkscape:version="0.92.3 (3ce5693, 2018-03-11)"
   sodipodi:docname="icon_gray.svg"
   inkscape:export-filename="/home/alfred/Projects/open/harbour-owncloud/src/app/icons/86x86/harbour-owncloud.png"
   inkscape:export-xdpi="96.674477"
   inkscape:export-ydpi="96.674477">
  <defs
     id="defs4">
    <linearGradient
       y2="339.22119"
       x2="346.77341"
       y1="55.888199"
       x1="346.77341"
       gradientUnits="userSpaceOnUse"
       id="linearGradient887">
      <stop
         id="stop883"
         style="stop-color:#ffffff;stop-opacity:1"
         offset="0" />
      <stop
         id="stop885"
         style="stop-color:#567B8F"
         offset="1" />
    </linearGradient>
    <linearGradient
       id="linearGradient3789-6">
      <stop
         style="stop-color:#1b2d43;stop-opacity:0.93333334"
         offset="0"
         id="stop3791-0" />
      <stop
         style="stop-color:#1b2d43;stop-opacity:1"
         offset="1"
         id="stop3793-4" />
    </linearGradient>
    <linearGradient
       y2="339.22189"
       x2="288.49411"
       y1="55.888199"
       x1="288.49411"
       gradientUnits="userSpaceOnUse"
       id="linearGradient3353"
       xlink:href="#SVGID_1_"
       inkscape:collect="always" />
    <linearGradient
       y2="339.22159"
       x2="251.2114"
       y1="55.888199"
       x1="251.2114"
       gradientUnits="userSpaceOnUse"
       id="linearGradient3355"
       xlink:href="#SVGID_2_"
       inkscape:collect="always" />
    <linearGradient
       y2="339.22171"
       x2="293.22461"
       y1="55.888199"
       x1="293.22461"
       gradientUnits="userSpaceOnUse"
       id="linearGradient3357"
       xlink:href="#SVGID_3_"
       inkscape:collect="always" />
    <linearGradient
       y2="339.22159"
       x2="375.33401"
       y1="55.888199"
       x1="375.33401"
       gradientUnits="userSpaceOnUse"
       id="linearGradient3359"
       xlink:href="#SVGID_4_"
       inkscape:collect="always" />
    <linearGradient
       y2="339.22159"
       x2="334.49411"
       y1="55.888199"
       x1="334.49411"
       gradientUnits="userSpaceOnUse"
       id="linearGradient3361"
       xlink:href="#SVGID_5_"
       inkscape:collect="always" />
    <linearGradient
       y2="339.2236"
       x2="458.42679"
       y1="55.8867"
       x1="458.42679"
       gradientUnits="userSpaceOnUse"
       id="linearGradient3363"
       xlink:href="#SVGID_6_"
       inkscape:collect="always" />
    <linearGradient
       y2="339.22131"
       x2="413.16309"
       y1="55.888199"
       x1="413.16309"
       gradientUnits="userSpaceOnUse"
       id="linearGradient3365"
       xlink:href="#SVGID_7_"
       inkscape:collect="always" />
    <linearGradient
       y2="339.2236"
       x2="290.76169"
       y1="55.8867"
       x1="290.76169"
       gradientUnits="userSpaceOnUse"
       id="linearGradient3367"
       xlink:href="#SVGID_8_"
       inkscape:collect="always" />
    <linearGradient
       y2="339.22119"
       x2="346.77341"
       y1="55.888199"
       x1="346.77341"
       gradientUnits="userSpaceOnUse"
       id="linearGradient3369"
       xlink:href="#SVGID_9_"
       inkscape:collect="always" />
    <linearGradient
       id="SVGID_1_"
       gradientUnits="userSpaceOnUse"
       x1="288.49411"
       y1="55.888199"
       x2="288.49411"
       y2="339.22189">
      <stop
         offset="0"
         style="stop-color:#BED5E1"
         id="stop261" />
      <stop
         offset="1"
         style="stop-color:#567B8F"
         id="stop263" />
    </linearGradient>
    <linearGradient
       id="SVGID_2_"
       gradientUnits="userSpaceOnUse"
       x1="251.2114"
       y1="55.888199"
       x2="251.2114"
       y2="339.22159">
      <stop
         offset="0"
         style="stop-color:#BED5E1"
         id="stop268" />
      <stop
         offset="1"
         style="stop-color:#567B8F"
         id="stop270" />
    </linearGradient>
    <linearGradient
       id="SVGID_3_"
       gradientUnits="userSpaceOnUse"
       x1="293.22461"
       y1="55.888199"
       x2="293.22461"
       y2="339.22171">
      <stop
         offset="0"
         style="stop-color:#BED5E1"
         id="stop275" />
      <stop
         offset="1"
         style="stop-color:#567B8F"
         id="stop277" />
    </linearGradient>
    <linearGradient
       id="SVGID_4_"
       gradientUnits="userSpaceOnUse"
       x1="375.33401"
       y1="55.888199"
       x2="375.33401"
       y2="339.22159">
      <stop
         offset="0"
         style="stop-color:#BED5E1"
         id="stop282" />
      <stop
         offset="1"
         style="stop-color:#567B8F"
         id="stop284" />
    </linearGradient>
    <linearGradient
       id="SVGID_5_"
       gradientUnits="userSpaceOnUse"
       x1="334.49411"
       y1="55.888199"
       x2="334.49411"
       y2="339.22159">
      <stop
         offset="0"
         style="stop-color:#BED5E1"
         id="stop289" />
      <stop
         offset="1"
         style="stop-color:#567B8F"
         id="stop291" />
    </linearGradient>
    <linearGradient
       id="SVGID_6_"
       gradientUnits="userSpaceOnUse"
       x1="458.42679"
       y1="55.8867"
       x2="458.42679"
       y2="339.2236">
      <stop
         offset="0"
         style="stop-color:#BED5E1"
         id="stop296" />
      <stop
         offset="1"
         style="stop-color:#567B8F"
         id="stop298" />
    </linearGradient>
    <linearGradient
       id="SVGID_7_"
       gradientUnits="userSpaceOnUse"
       x1="413.16309"
       y1="55.888199"
       x2="413.16309"
       y2="339.22131">
      <stop
         offset="0"
         style="stop-color:#BED5E1"
         id="stop303" />
      <stop
         offset="1"
         style="stop-color:#567B8F"
         id="stop305" />
    </linearGradient>
    <linearGradient
       id="SVGID_8_"
       gradientUnits="userSpaceOnUse"
       x1="290.76169"
       y1="55.8867"
       x2="290.76169"
       y2="339.2236">
      <stop
         offset="0"
         style="stop-color:#BED5E1"
         id="stop310" />
      <stop
         offset="1"
         style="stop-color:#567B8F"
         id="stop312" />
    </linearGradient>
    <linearGradient
       id="SVGID_9_"
       gradientUnits="userSpaceOnUse"
       x1="346.77341"
       y1="55.888199"
       x2="346.77341"
       y2="339.22119">
      <stop
         offset="0"
         style="stop-color:#BED5E1"
         id="stop317" />
      <stop
         offset="1"
         style="stop-color:#567B8F"
         id="stop319" />
    </linearGradient>
    <radialGradient
       inkscape:collect="always"
       xlink:href="#SVGID_4_"
       id="radialGradient936"
       cx="66.480255"
       cy="46.683167"
       fx="66.480255"
       fy="46.683167"
       r="65"
       gradientTransform="matrix(1,0,0,0.84615385,0,7.1820259)"
       gradientUnits="userSpaceOnUse" />
    <radialGradient
       inkscape:collect="always"
       xlink:href="#SVGID_8_"
       id="radialGradient938"
       gradientUnits="userSpaceOnUse"
       gradientTransform="matrix(1,0,0,0.84615385,0,7.1820259)"
       cx="66.480255"
       cy="46.683167"
       fx="66.480255"
       fy="46.683167"
       r="65" />
    <radialGradient
       inkscape:collect="always"
       xlink:href="#SVGID_9_"
       id="radialGradient942"
       gradientUnits="userSpaceOnUse"
       gradientTransform="matrix(1,0,0,0.84615385,0,7.1820259)"
       cx="66.480255"
       cy="46.683167"
       fx="66.480255"
       fy="46.683167"
       r="65" />
    <radialGradient
       inkscape:collect="always"
       xlink:href="#linearGradient3789-6"
       id="radialGradient902"
       cx="61.160427"
       cy="44.114681"
       fx="61.160427"
       fy="44.114681"
       r="64.058479"
       gradientTransform="matrix(1,0,0,0.73649481,0,11.624447)"
       gradientUnits="userSpaceOnUse" />
  </defs>
  <sodipodi:namedview
     id="base"
     pagecolor="#ffffff"
     bordercolor="#666666"
     borderopacity="1.0"
     inkscape:pageopacity="0.0"
     inkscape:pageshadow="2"
     inkscape:zoom="20.48"
     inkscape:cx="17.532804"
     inkscape:cy="58.765509"
     inkscape:document-units="px"
     inkscape:current-layer="layer2"
     showgrid="true"
     inkscape:window-width="3060"
     inkscape:window-height="1671"
     inkscape:window-x="140"
     inkscape:window-y="55"
     inkscape:window-maximized="1"
     inkscape:snap-bbox="true"
     inkscape:snap-global="true">
    <inkscape:grid
       type="xygrid"
       id="grid2985"
       empspacing="5"
       visible="true"
       enabled="true"
       snapvisiblegridlinesonly="true" />
    <sodipodi:guide
       position="0,0"
       orientation="0,86"
       id="guide4694"
       inkscape:locked="false" />
    <sodipodi:guide
       position="86,0"
       orientation="-86,0"
       id="guide4696"
       inkscape:locked="false" />
    <sodipodi:guide
       position="86,86"
       orientation="0,-86"
       id="guide4698"
       inkscape:locked="false" />
    <sodipodi:guide
       position="0,86"
       orientation="86,0"
       id="guide4700"
       inkscape:locked="false" />
  </sodipodi:namedview>
  <metadata
     id="metadata7">
    <rdf:RDF>
      <cc:Work
         rdf:about="">
        <dc:format>image/svg+xml</dc:format>
        <dc:type
           rdf:resource="http://purl.org/dc/dcmitype/StillImage" />
        <dc:title />
      </cc:Work>
    </rdf:RDF>
  </metadata>
  <g
     inkscape:groupmode="layer"
     id="layer2"
     inkscape:label="Ebene"
     style="display:inline"
     transform="translate(0,-4)">
    <path
       style="fill:#1b2b43;fill-opacity:0"
       d="m 76.670771,60.999268 -3.24577,-3.249332 0.55053,-0.463242 c 0.302792,-0.254782 0.763412,-0.898356 1.023601,-1.430162 1.562106,-3.192829 -0.796185,-6.971801 -4.350795,-6.971801 l -0.649637,0 -0.118106,1.281631 c -0.06496,0.704898 -0.24754,1.744659 -0.405736,2.310583 -0.277078,0.991198 -0.299212,1.017143 -0.603268,0.707107 -0.291036,-0.296762 -0.295836,-0.397178 -0.06159,-1.288448 0.799082,-3.040371 -0.209081,-6.531782 -2.553967,-8.844742 -1.384423,-1.365574 -2.507466,-2.003025 -4.366547,-2.478498 -1.621997,-0.414836 -2.564411,-0.433732 -4.213057,-0.08447 -1.17771,0.249496 -1.693859,0.168631 -1.693859,-0.265372 0,-0.149846 2.083409,-0.706953 2.643788,-0.706953 0.469204,0 0.471788,-0.489296 0.01046,-1.982867 -1.059527,-3.43035 -3.97056,-5.74693 -7.651534,-6.089039 l -1.21896,-0.113291 0.03023,0.866423 c 0.01664,0.476533 0.02316,1.097515 0.01453,1.37996 -0.01536,0.502153 -0.02354,0.506444 -0.369261,0.193572 -0.21361,-0.193314 -0.353554,-0.544467 -0.353554,-0.887154 0,-2.001871 -1.056769,-4.492958 -2.531698,-5.967888 -1.513775,-1.513776 -4.033251,-2.602511 -6.022547,-2.602511 -0.491949,0 -1.527248,-0.976715 -9.654396,-9.108077 C 23.631961,7.953261 21.830333,6.0616938 22.041445,5.9252906 22.772646,5.4528494 25.151432,4.2898712 26.704761,3.6454154 30.325692,2.1431383 34.579495,1.0424413 38.342128,0.63417676 39.452658,0.51367873 47.978089,0.44791647 62.488944,0.44791647 l 22.430208,0 0.336758,0.37218361 c 0.327442,0.36188762 0.336758,0.99395512 0.336758,22.84838792 0,17.700679 -0.04997,22.851802 -0.235164,24.243972 -0.715007,5.374838 -2.330142,10.529919 -4.66379,14.885586 l -0.777171,1.450555 -3.245772,-3.249333 z"
       id="path4670"
       inkscape:connector-curvature="0"
       transform="translate(0,4)" />
    <path
       style="fill:#1b2b43;fill-opacity:0"
       d="m 57.523362,68.00966 -9.837828,-9.844152 0.922345,-0.40096 c 1.308123,-0.568665 3.156429,-2.006878 4.095781,-3.187029 1.848475,-2.322324 2.75046,-4.883843 2.745968,-7.798191 -0.0033,-2.115759 -0.339158,-3.572903 -1.265394,-5.489371 -1.020712,-2.111947 -3.139713,-4.233384 -5.272731,-5.278791 -0.826431,-0.405039 -2.019673,-0.869478 -2.65165,-1.032084 -1.512005,-0.389038 -4.31129,-0.3801 -5.833631,0.01863 -3.393397,0.888789 -6.482681,3.354248 -7.898558,6.303581 -0.274085,0.570931 -0.548257,1.039101 -0.609273,1.040379 -0.06102,0.0012 -0.204752,-0.110717 -0.319413,-0.248877 -0.164365,-0.198047 -0.10804,-0.45053 0.266191,-1.193243 0.261067,-0.518123 0.614764,-1.140917 0.785993,-1.383985 0.306172,-0.434624 0.299781,-0.460966 -0.385918,-1.59099 -0.383485,-0.631976 -0.825248,-1.606458 -0.981697,-2.165514 l -0.284455,-1.016466 -1.082925,0 c -1.218328,0 -2.781569,0.359799 -3.783048,0.870717 l -0.670514,0.34207 -8.692131,-8.693928 -8.6921309,-8.693927 1.3558697,-1.767767 C 10.981078,14.782976 14.438584,11.257827 16.358517,9.7399889 22.556682,4.8399156 29.87552,1.7406728 37.658026,0.72047527 39.435383,0.48748422 42.938235,0.44791647 61.787101,0.44791647 l 22.049877,0 0.930878,0.94258723 0.93088,0.9425872 -0.06267,22.2593541 c -0.06098,21.65712 -0.07278,22.32153 -0.436325,24.557451 -1.822968,11.211886 -7.158702,20.377703 -15.911692,27.333385 -0.719209,0.571528 -1.446974,1.113705 -1.617254,1.204836 -0.258161,0.138165 -1.944164,-1.469918 -10.147428,-9.678457 z m 4.250461,-9.13803 c 3.408363,-0.803602 6.220472,-3.615711 7.024074,-7.024073 0.515769,-2.187561 0.284992,-4.135916 -0.748769,-6.321583 -1.632996,-3.452613 -5.690472,-5.682114 -9.414447,-5.173048 -1.790276,0.24473 -3.423387,0.868421 -3.294972,1.258362 0.805617,2.446342 0.871037,2.818837 0.889315,5.063735 0.01391,1.709688 -0.06232,2.592301 -0.297782,3.447145 -0.442661,1.607107 -1.399475,3.467666 -2.460304,4.784142 l -0.90202,1.119394 0.833611,0.754718 c 2.158957,1.954629 5.456627,2.77841 8.371294,2.091208 z m 11.028991,-0.856764 c 1.651059,-0.805474 2.625194,-2.397325 2.625194,-4.289879 0,-2.610612 -1.735746,-4.499262 -4.389963,-4.776681 l -1.035558,-0.108239 -0.123035,1.475308 c -0.193148,2.316002 -0.774747,3.732873 -2.516363,6.13028 -0.272236,0.374745 -0.270813,0.424492 0.02139,0.747369 0.17217,0.190245 0.719943,0.551662 1.217274,0.80315 0.783158,0.39602 1.081773,0.448959 2.230065,0.395347 0.795712,-0.03715 1.58379,-0.187751 1.971,-0.376655 z M 56.336125,40.045897 c 0.826431,-0.28908 1.770169,-0.526664 2.097197,-0.527965 l 0.594597,-0.0024 -0.125485,-0.839689 c -0.398571,-2.667052 -2.232101,-5.092614 -4.838954,-6.40141 -0.824946,-0.414172 -2.764413,-0.882533 -3.67535,-0.88756 l -0.556306,-0.0031 0.01085,1.458408 c 0.006,0.802124 -0.04613,1.706965 -0.115782,2.010757 -0.119041,0.519243 -0.07608,0.581972 0.716703,1.046577 1.081343,0.633709 3.214972,2.765231 3.846286,3.842487 0.268867,0.458788 0.501178,0.833095 0.516246,0.831794 0.01506,-0.0013 0.703563,-0.238885 1.529994,-0.527964 z M 34.794753,37.142055 c 1.487164,-1.376886 3.842384,-2.590682 5.878366,-3.0295 2.006933,-0.432555 4.837586,-0.285454 6.714582,0.348941 0.766157,0.258948 1.426278,0.437549 1.466939,0.39689 0.04066,-0.04066 0.11801,-0.620304 0.171894,-1.288101 0.193252,-2.395068 -0.668748,-4.687006 -2.467179,-6.559884 -4.202884,-4.376868 -11.392403,-3.176195 -14.026041,2.342392 -1.036285,2.171454 -1.095075,5.053497 -0.145479,7.131499 0.501677,1.097815 0.919817,1.793838 1.077661,1.793838 0.0562,0 0.654371,-0.511233 1.329257,-1.136075 z m -6.678219,-3.022396 c 0.596402,-0.140647 1.462228,-0.256897 1.924057,-0.258334 l 0.839689,-0.0026 0,-1.023519 c 0,-0.562937 0.128904,-1.497644 0.286454,-2.077126 0.520157,-1.91318 0.546274,-1.773064 -0.389967,-2.092073 -2.30181,-0.784305 -4.532652,0.0043 -5.609642,1.98313 -0.642595,1.180658 -0.773116,2.344827 -0.404898,3.611451 l 0.288162,0.991242 0.990889,-0.438219 c 0.544988,-0.241021 1.478854,-0.553293 2.075256,-0.693939 z"
       id="path4672"
       inkscape:connector-curvature="0"
       transform="translate(0,4)" />
    <g
       transform="matrix(-0.6153846,0,0,0.54545455,82.910924,21.290601)"
       id="g4257"
       style="opacity:1;fill:url(#radialGradient936);fill-opacity:1">
      <rect
         y="-8.3168316"
         x="1.4802577"
         height="110"
         width="130"
         id="rect4259"
         style="opacity:0;fill:url(#radialGradient938);fill-opacity:1;stroke:none" />
      <g
         transform="matrix(1.0322865,0,0,1.0751207,3.1551607,-6.78369)"
         id="g4261"
         style="fill:url(#radialGradient942);fill-opacity:1">
        <path
           sodipodi:type="inkscape:offset"
           inkscape:radius="6.8694949"
           inkscape:original="M 47.15625 6.40625 C 34.017587 6.3712955 22.209992 17.453777 22.03125 30.71875 C 21.193418 33.666955 23.97327 38.428594 19.75 38.75 C 4.4434503 45.31449 1.7644115 69.944063 16.59375 78.46875 C 25.785956 84.360338 37.291062 80.494675 47.53125 81.59375 C 64.680596 81.273543 82.048595 82.220831 99.0625 81.125 C 110.28493 77.715605 118.54566 65.434894 114.84375 53.71875 C 112.94303 46.574264 107.52414 39.811444 100.0625 38.1875 C 102.11814 26.019367 89.936554 13.999966 77.8125 17.5625 C 75.007489 17.650288 72.102939 22.257123 71.0625 18.03125 C 66.067737 10.018031 56.389623 6.005843 47.15625 6.40625 z "
           style="fill:url(#radialGradient902);fill-opacity:1;stroke:#ffffff;stroke-width:5.17053501;stroke-miterlimit:4;stroke-dasharray:none;stroke-opacity:1;opacity:0.333"
           id="path4263"
           d="m 47.080078,-0.453125 c -16.617105,0.00667 -30.977423,13.276901 -31.792969,30.027344 -0.379636,1.6319 -0.472033,2.976328 -0.396484,3.986328 C -3.8129873,43.64501 -6.1666072,73.103876 13.005859,84.3125 c 6.234577,3.94845 12.999309,4.4857 18.783203,4.384766 5.820242,-0.101569 11.010779,-0.702647 15.009766,-0.273438 a 6.8701819,6.8701819 0 0 0 0.861328,0.03906 c 16.809954,-0.31387 34.277199,0.649004 51.84375,-0.482422 a 6.8701819,6.8701819 0 0 0 1.554684,-0.283203 c 14.66488,-4.455218 25.2455,-20.111025 20.36719,-35.886719 -2.02417,-7.465205 -6.94035,-14.64082 -14.39062,-18.328125 C 105.89375,18.628761 91.220936,6.4614508 75.875,10.970703 l 1.722656,-0.273437 c -1.217859,0.03811 -2.227467,0.216381 -3.09375,0.451172 C 67.707108,2.962823 57.177707,-0.83036158 47.080078,-0.453125 Z"
           transform="matrix(0.96709183,0,0,0.96709183,2.193535,2.0254204)" />
      </g>
    </g>
    <g
       transform="matrix(-0.13738691,0,0,0.14874466,80.785215,27.110137)"
       id="g4530"
       style="opacity:0.5">
      <path
         style="fill:none;stroke:#ffffff;stroke-width:10.95394135;stroke-linecap:round;stroke-linejoin:miter;stroke-miterlimit:4;stroke-dasharray:none;stroke-opacity:1;opacity:1"
         d="m 285.08305,161.73006 c 10.03588,25.46628 57.3716,26.47501 70.01057,-1.12017"
         id="path4532"
         inkscape:connector-curvature="0"
         sodipodi:nodetypes="cc" />
      <g
         id="g4534">
        <path
           style="opacity:1;fill:#ffffff;fill-opacity:1;stroke:none;stroke-width:0.29961389"
           d="M 46.119141 32.253906 A 5.886544 5.8493601 0 0 0 40.234375 38.103516 A 5.886544 5.8493601 0 0 0 46.119141 43.953125 A 5.886544 5.8493601 0 0 0 52.005859 38.103516 A 5.886544 5.8493601 0 0 0 46.119141 32.253906 z M 44.138672 33.919922 A 2.557669 2.5415129 0 0 1 46.697266 36.460938 A 2.557669 2.5415129 0 0 1 44.138672 39.003906 A 2.557669 2.5415129 0 0 1 41.582031 36.460938 A 2.557669 2.5415129 0 0 1 44.138672 33.919922 z M 48.876953 35.169922 A 1.3592281 1.3506422 0 0 1 50.236328 36.521484 A 1.3592281 1.3506422 0 0 1 48.876953 37.871094 A 1.3592281 1.3506422 0 0 1 47.517578 36.521484 A 1.3592281 1.3506422 0 0 1 48.876953 35.169922 z M 46.722656 39.085938 A 1.3592281 1.3506422 0 0 1 48.082031 40.435547 A 1.3592281 1.3506422 0 0 1 46.722656 41.787109 A 1.3592281 1.3506422 0 0 1 45.363281 40.435547 A 1.3592281 1.3506422 0 0 1 46.722656 39.085938 z "
           transform="matrix(-7.2787138,0,0,6.7229304,588.01246,-155.36784)"
           id="path4536" />
      </g>
      <g
         id="g4544"
         transform="translate(141.7014)">
        <path
           style="opacity:1;fill:#ffffff;fill-opacity:1;stroke:none;stroke-width:0.29961389"
           d="M 26.652344 32.253906 A 5.886544 5.8493601 0 0 0 20.765625 38.103516 A 5.886544 5.8493601 0 0 0 26.652344 43.953125 A 5.886544 5.8493601 0 0 0 32.539062 38.103516 A 5.886544 5.8493601 0 0 0 26.652344 32.253906 z M 24.671875 33.919922 A 2.557669 2.5415129 0 0 1 27.228516 36.460938 A 2.557669 2.5415129 0 0 1 24.671875 39.003906 A 2.557669 2.5415129 0 0 1 22.113281 36.460938 A 2.557669 2.5415129 0 0 1 24.671875 33.919922 z M 29.410156 35.169922 A 1.3592281 1.3506422 0 0 1 30.769531 36.521484 A 1.3592281 1.3506422 0 0 1 29.410156 37.871094 A 1.3592281 1.3506422 0 0 1 28.050781 36.521484 A 1.3592281 1.3506422 0 0 1 29.410156 35.169922 z M 27.255859 39.085938 A 1.3592281 1.3506422 0 0 1 28.615234 40.435547 A 1.3592281 1.3506422 0 0 1 27.255859 41.787109 A 1.3592281 1.3506422 0 0 1 25.896484 40.435547 A 1.3592281 1.3506422 0 0 1 27.255859 39.085938 z "
           transform="matrix(-7.2787138,0,0,6.7229304,446.31106,-155.36784)"
           id="path4546" />
      </g>
    </g>
  </g>
</svg>
